<svg xmlns="http://www.w3.org/2000/svg" id="5UnvFgjvM6Zd_V_MWBYVi" width="1160" height="664" viewBox="2508 2156 1160 664" style="width: 100%; height: 100%; font-family: Inter, arial, sans-serif;"><g id="wrapper" transform="translate(0, 0) scale(1)"><g id="objects"><g transform="translate(2608, 2384)"><mask id="ctr_PtMQlccc1aKlnwx27qN45ZYMVfokDDANiUywQBfZ5y-text-mask"><rect x="-3" y="-3" width="214" height="214" fill="white"/><rect x="10" y="204" width="38.26666259765625" height="6" fill="black"/></mask><g><rect x="1" y="1" width="206" height="206" fill="transparent" stroke="#d3d3d3" stroke-width="2px" stroke-opacity="1" rx="10" ry="10" mask="url(&quot;#ctr_PtMQlccc1aKlnwx27qN45ZYMVfokDDANiUywQBfZ5y-text-mask&quot;)"/></g><g><rect x="-8" y="-8" width="224" height="16" fill="transparent"/><rect x="-8" y="200" width="224" height="16" fill="transparent"/><rect x="-8" y="-8" width="16" height="224" fill="transparent"/><rect x="200" y="-8" width="16" height="224" fill="transparent"/></g><g><g transform="translate(10, 194.89999389648438)"><text x="2" y="16" font-size="14px" fill="#595959">User</text></g></g></g><g transform="translate(2608, 2608)"><mask id="ctr_h6QKzmOlVMADw2RCj5XkToZDq4mSq1llAvXWbiGMpe-text-mask"><rect x="-3" y="-3" width="214" height="118" fill="white"/><rect x="10" y="108" width="20.366668701171875" height="6" fill="black"/></mask><g><rect x="1" y="1" width="206" height="110" fill="#fdfdfd" stroke="#d3d3d3" stroke-width="2px" stroke-opacity="1" rx="10" ry="10" mask="url(&quot;#ctr_h6QKzmOlVMADw2RCj5XkToZDq4mSq1llAvXWbiGMpe-text-mask&quot;)"/></g><g><rect x="-8" y="-8" width="224" height="16" fill="transparent"/><rect x="-8" y="104" width="224" height="16" fill="transparent"/><rect x="-8" y="-8" width="16" height="128" fill="transparent"/><rect x="200" y="-8" width="16" height="128" fill="transparent"/></g><g><g transform="translate(10, 98.89999389648438)"><text x="2" y="16" font-size="14px" fill="#595959">AI</text></g></g></g><g id="icn_QYrP495cW0hYViBFfzf89" transform="translate(2624,2624)"><g transform="translate(0,0)"><path d="&#xA;    M 0, 21.248&#xA;    C 0, 3.750272 3.750272, 0 21.248, 0&#xA;    L 138.752, 0&#xA;    C 156.249728, 0 160, 3.750272 160, 21.248&#xA;    L 160, 42.751999999999995&#xA;    C 160, 60.249728 156.249728, 64 138.752, 64&#xA;    L 21.248, 64&#xA;    C 3.750272, 64 0, 60.249728 0, 42.751999999999995&#xA;    L 0, 21.248&#xA;  " stroke-width="2" stroke="#fad2b8" fill="#fdefe5"/></g><rect width="170" height="74" x="-5" y="-5" fill="transparent"/><rect width="150" height="54" x="5" y="5" fill="transparent"/><g><svg viewBox="0 0 50 50" width="44" height="44" x="31.883331298828125" y="10"><svg id="mlz-lNjufDW4w4foQMkMw" xmlns="http://www.w3.org/2000/svg" viewBox="5.58 4.89 40.16 41.53" width="50" height="50"><path fill="#B0084D" fill-rule="evenodd" d="M23.93 13.41h2.807v-1.403H23.93v1.403zm-4.912 0h2.807v-1.403h-2.807v1.403zm-4.912 0h2.807v-1.403h-2.807v1.403zm29.267 19.9c-.212.495-.66.869-1.2 1.044v-3.966c.426.152.804.425 1.06.815.403.611.455 1.379.14 2.106zm-35.377 0c-.315-.728-.263-1.496.14-2.107.256-.39.634-.663 1.059-.815v3.966c-.54-.174-.987-.55-1.2-1.045zm36.41-2.88a3.497 3.497 0 0 0-2.233-1.504v-1.247c0-2.45-1.888-4.444-4.21-4.444H24.632v1.404h13.331c1.549 0 2.807 1.364 2.807 3.04v9.357c0 1.677-1.258 3.041-2.807 3.041H13.405c-1.548 0-2.807-1.364-2.807-3.04v-9.358c0-1.676 1.259-3.04 2.807-3.04h3.508v-1.404h-3.508c-2.321 0-4.21 1.994-4.21 4.444v1.247a3.496 3.496 0 0 0-2.231 1.505c-.667 1.012-.761 2.264-.258 3.434.439 1.018 1.377 1.73 2.489 1.938v1.233c0 2.45 1.889 4.445 4.21 4.445h8.42v4.21h1.403v-4.21h4.21v4.21h1.404v-4.21h9.121c2.322 0 4.21-1.994 4.21-4.445v-1.233c1.114-.207 2.052-.92 2.49-1.938.503-1.17.409-2.422-.258-3.434zM19.72 32.359c0 1.16-.944 2.105-2.105 2.105a2.108 2.108 0 0 1-2.105-2.105c0-1.16.944-2.105 2.105-2.105s2.105.944 2.105 2.105zm-5.614 0a3.513 3.513 0 0 0 3.509 3.509 3.513 3.513 0 0 0 3.508-3.51 3.513 3.513 0 0 0-3.508-3.508 3.513 3.513 0 0 0-3.508 3.509zm17.542 0c0-1.16.945-2.105 2.105-2.105 1.162 0 2.105.944 2.105 2.105 0 1.16-.943 2.105-2.105 2.105a2.108 2.108 0 0 1-2.105-2.105zm5.614 0a3.512 3.512 0 0 0-3.509-3.509 3.513 3.513 0 0 0-3.508 3.509 3.513 3.513 0 0 0 3.508 3.509 3.512 3.512 0 0 0 3.509-3.51zM11.3 7.693c0-.33.268-.598.598-.598h17.645v11.31a.62.62 0 0 1-.619.62h-7.1a.702.702 0 0 0-.7.701v3.641l-3.102-4.066a.704.704 0 0 0-.558-.276h-5.566a.598.598 0 0 1-.598-.598V7.693zm.598 12.735h5.219l4.15 5.44a.7.7 0 0 0 1.26-.425v-5.015h6.397a2.025 2.025 0 0 0 2.023-2.023V6.76c0-.59-.48-1.07-1.07-1.07h-17.98a2.004 2.004 0 0 0-2 2.002v10.734c0 1.104.898 2.001 2 2.001z" clip-rule="evenodd"/></svg></svg><g transform="translate(99.88333129882812, 10)"><g transform="translate(0,-4)"><text y="12.5"><tspan dy="19" x="0" text-anchor="start"><tspan text-decoration="none" font-style="normal" font-size="14px" font-weight="normal" style="font-weight: normal;" fill="#000000">LLM</tspan></tspan></text></g></g><line x1="87.13333129882812" y1="7.25" x2="87.13333129882812" y2="56.75" stroke="#fad2b8" stroke-width="1.5px" stroke-linecap="round"/></g></g><g transform="translate(2832, 2384)"><mask id="ctr_KROqKdK85Uiza65bKLQMz5QbG5ULn5b7vdgdzQ16db-text-mask"><rect x="-3" y="-3" width="742" height="342" fill="white"/><rect x="303.3833312988281" y="332" width="131.2166748046875" height="6" fill="black"/></mask><g><rect x="1" y="1" width="734" height="334" fill="transparent" stroke="#d3d3d3" stroke-width="2px" stroke-opacity="1" rx="10" ry="10" mask="url(&quot;#ctr_KROqKdK85Uiza65bKLQMz5QbG5ULn5b7vdgdzQ16db-text-mask&quot;)"/></g><g><rect x="-8" y="-8" width="752" height="16" fill="transparent"/><rect x="-8" y="328" width="752" height="16" fill="transparent"/><rect x="-8" y="-8" width="16" height="352" fill="transparent"/><rect x="728" y="-8" width="16" height="352" fill="transparent"/></g><g><g transform="translate(303.3833312988281, 322.8999938964844)"><text x="2" y="16" font-size="14px" fill="#595959">In-Context Retrival</text></g></g></g><g transform="translate(2608, 2256)"><mask id="ctr_mqU87ER8tjF6LhYrDM9avB90A7sTpFJmm0KEU-7Zwi-text-mask"><rect x="-3" y="-3" width="966" height="118" fill="white"/><rect x="10" y="108" width="143.38333129882812" height="6" fill="black"/></mask><g><rect x="1" y="1" width="958" height="110" fill="#fdfdfd" stroke="#d3d3d3" stroke-width="2px" stroke-opacity="1" rx="10" ry="10" mask="url(&quot;#ctr_mqU87ER8tjF6LhYrDM9avB90A7sTpFJmm0KEU-7Zwi-text-mask&quot;)"/></g><g><rect x="-8" y="-8" width="976" height="16" fill="transparent"/><rect x="-8" y="104" width="976" height="16" fill="transparent"/><rect x="-8" y="-8" width="16" height="128" fill="transparent"/><rect x="952" y="-8" width="16" height="128" fill="transparent"/></g><g><g transform="translate(10, 98.89999389648438)"><text x="2" y="16" font-size="14px" fill="#595959">Data Pre-Processing</text></g></g></g><g id="icn_5V01NMaqYEjB3lHeZ0AEC" transform="translate(2880,2272)"><g transform="translate(0,0)"><path d="&#xA;    M 0, 21.248&#xA;    C 0, 3.750272 3.750272, 0 21.248, 0&#xA;    L 42.751999999999995, 0&#xA;    C 60.249728, 0 64, 3.750272 64, 21.248&#xA;    L 64, 42.751999999999995&#xA;    C 64, 60.249728 60.249728, 64 42.751999999999995, 64&#xA;    L 21.248, 64&#xA;    C 3.750272, 64 0, 60.249728 0, 42.751999999999995&#xA;    L 0, 21.248&#xA;  " stroke-width="2" stroke="#bcdefb" fill="#e6f3fe"/></g><rect width="74" height="74" x="-5" y="-5" fill="transparent"/><rect width="54" height="54" x="5" y="5" fill="transparent"/><g><svg viewBox="0 0 50 50" width="40" height="40" x="12" y="12"><svg id="Mrq9C3RyMlirkaoHq2zhY" xmlns="http://www.w3.org/2000/svg" viewBox="0 0 576 512" width="50" height="50"><path fill="#232F3D" d="M384 121.9c0-6.3-2.5-12.4-7-16.9L279.1 7c-4.5-4.5-10.6-7-17-7H256v128h128zM571 308l-95.7-96.4c-10.1-10.1-27.4-3-27.4 11.3V288h-64v64h64v65.2c0 14.3 17.3 21.4 27.4 11.3L571 332c6.6-6.6 6.6-17.4 0-24zm-379 28v-32c0-8.8 7.2-16 16-16h176V160H248c-13.2 0-24-10.8-24-24V0H24C10.7 0 0 10.7 0 24v464c0 13.3 10.7 24 24 24h336c13.3 0 24-10.7 24-24V352H208c-8.8 0-16-7.2-16-16z"/></svg></svg><g transform="translate(8.916671752929688, 68)"><g transform="translate(0,-4)"><text><tspan dy="19" x="23.09166717529297" text-anchor="middle"><tspan text-decoration="none" font-style="normal" font-size="14px" font-weight="normal" style="font-weight: normal;" fill="#000000">Loader</tspan></tspan></text></g></g></g></g><g id="icn_qMOC3Z7EqCNnKiUBQBNwx" transform="translate(3232,2272)"><g transform="translate(0,0)"><path d="&#xA;    M 0, 21.248&#xA;    C 0, 3.750272 3.750272, 0 21.248, 0&#xA;    L 42.751999999999995, 0&#xA;    C 60.249728, 0 64, 3.750272 64, 21.248&#xA;    L 64, 42.751999999999995&#xA;    C 64, 60.249728 60.249728, 64 42.751999999999995, 64&#xA;    L 21.248, 64&#xA;    C 3.750272, 64 0, 60.249728 0, 42.751999999999995&#xA;    L 0, 21.248&#xA;  " stroke-width="2" stroke="#bcdefb" fill="#e6f3fe"/></g><rect width="74" height="74" x="-5" y="-5" fill="transparent"/><rect width="54" height="54" x="5" y="5" fill="transparent"/><g><svg viewBox="0 0 50 50" width="40" height="40" x="12" y="12"><svg id="UwaJAUGNWS5zWm4QRDLsi" xmlns="http://www.w3.org/2000/svg" viewBox="0 0 448 512" width="50" height="50"><path fill="#232F3D" d="M278.06 256 444.48 89.57c4.69-4.69 4.69-12.29 0-16.97-32.8-32.8-85.99-32.8-118.79 0L210.18 188.12l-24.86-24.86c4.31-10.92 6.68-22.81 6.68-35.26 0-53.02-42.98-96-96-96S0 74.98 0 128s42.98 96 96 96c4.54 0 8.99-.32 13.36-.93L142.29 256l-32.93 32.93c-4.37-.61-8.83-.93-13.36-.93-53.02 0-96 42.98-96 96s42.98 96 96 96 96-42.98 96-96c0-12.45-2.37-24.34-6.68-35.26l24.86-24.86L325.69 439.4c32.8 32.8 85.99 32.8 118.79 0 4.69-4.68 4.69-12.28 0-16.97L278.06 256zM96 160c-17.64 0-32-14.36-32-32s14.36-32 32-32 32 14.36 32 32-14.36 32-32 32zm0 256c-17.64 0-32-14.36-32-32s14.36-32 32-32 32 14.36 32 32-14.36 32-32 32z"/></svg></svg><g transform="translate(8.216659545898438, 68)"><g transform="translate(0,-4)"><text><tspan dy="19" x="23.783340454101562" text-anchor="middle"><tspan text-decoration="none" font-style="normal" font-size="14px" font-weight="normal" style="font-weight: normal;" fill="#000000">Splitter</tspan></tspan></text></g></g></g></g><g id="icn_raBgkw9yrZjpErLsv90zL" transform="translate(3360,2272)"><g transform="translate(0,0)"><g><g transform="translate(8,8)"><path d="&#xA;    M 0, 18.592000000000002&#xA;    C 0, 3.281488 3.281488, 0 18.592000000000002, 0&#xA;    L 149.408, 0&#xA;    C 164.718512, 0 168, 3.281488 168, 18.592000000000002&#xA;    L 168, 37.408&#xA;    C 168, 52.718512 164.718512, 56 149.408, 56&#xA;    L 18.592000000000002, 56&#xA;    C 3.281488, 56 0, 52.718512 0, 37.408&#xA;    L 0, 18.592000000000002&#xA;  " stroke-width="2" stroke="#c0def4" fill="#e8f3fb"/></g><g transform="translate(4,4)"><path d="&#xA;    M 0, 18.592000000000002&#xA;    C 0, 3.281488 3.281488, 0 18.592000000000002, 0&#xA;    L 149.408, 0&#xA;    C 164.718512, 0 168, 3.281488 168, 18.592000000000002&#xA;    L 168, 37.408&#xA;    C 168, 52.718512 164.718512, 56 149.408, 56&#xA;    L 18.592000000000002, 56&#xA;    C 3.281488, 56 0, 52.718512 0, 37.408&#xA;    L 0, 18.592000000000002&#xA;  " stroke-width="2" stroke="#c0def4" fill="#e8f3fb"/></g></g><path d="&#xA;    M 0, 18.592000000000002&#xA;    C 0, 3.281488 3.281488, 0 18.592000000000002, 0&#xA;    L 149.408, 0&#xA;    C 164.718512, 0 168, 3.281488 168, 18.592000000000002&#xA;    L 168, 37.408&#xA;    C 168, 52.718512 164.718512, 56 149.408, 56&#xA;    L 18.592000000000002, 56&#xA;    C 3.281488, 56 0, 52.718512 0, 37.408&#xA;    L 0, 18.592000000000002&#xA;  " stroke-width="2" stroke="#c0def4" fill="#e8f3fb"/></g><rect width="178" height="66" x="-5" y="-5" fill="transparent"/><rect width="158" height="46" x="5" y="5" fill="transparent"/><g><svg viewBox="0 0 50 50" width="36" height="36" x="12.933334350585938" y="10"><svg id="dbzeqqvbHoLv8cIOCns8d" xmlns="http://www.w3.org/2000/svg" viewBox="6.2 4.58 38.29 41.6" width="50" height="50"><g fill="none" fill-rule="evenodd"><path fill="#5EA0EF" d="M30.26 6.133H7.792V32.1h22.466V6.133Z"/><path fill="#0078D4" d="M30.26 32.842H7.792a.742.742 0 0 1-.743-.742V6.133a.74.74 0 0 1 .743-.742h22.466a.74.74 0 0 1 .74.742V32.1a.742.742 0 0 1-.74.742ZM8.532 31.358h20.984V6.876H8.533v24.482Z"/><path fill="#83B9F9" d="M34.553 9.653H12.086V35.62h22.467V9.653Z"/><path fill="#0078D4" d="M34.553 36.362H12.086a.744.744 0 0 1-.742-.742V9.653a.745.745 0 0 1 .742-.742h22.467a.742.742 0 0 1 .742.742v25.96a.742.742 0 0 1-.742.75Zm-21.725-1.484h20.985V10.396H12.828v24.482Z"/><path fill="#fff" d="M32.246 12.925h-13.92a1.111 1.111 0 0 0-1.1 1.11v30.023a1.111 1.111 0 0 0 1.1 1.11H42.45a1.111 1.111 0 0 0 1.098-1.11v-19.88a1.111 1.111 0 0 0-1.098-1.111h-8a1.111 1.111 0 0 1-1.1-1.1v-7.94a1.111 1.111 0 0 0-1.104-1.102Z"/><path fill="url(#nK3Kz4hrM4rg8XZF2UcLJ)" d="M31.737 14.331v7.54a2.77 2.77 0 0 0 2.771 2.767h7.596v19.11H18.679V14.332h13.058Zm.533-1.649H18.146a1.11 1.11 0 0 0-1.111 1.111V44.28a1.111 1.111 0 0 0 1.11 1.111h24.483a1.11 1.11 0 0 0 1.111-1.111V24.105a1.111 1.111 0 0 0-1.11-1.112h-8.12a1.111 1.111 0 0 1-1.112-1.11v-8.085a1.111 1.111 0 0 0-1.111-1.111l-.016-.005Z"/><path fill="#0078D4" d="M43.317 23.211 33.001 12.925v8.382a1.894 1.894 0 0 0 1.88 1.904h8.436Z"/><path fill="#5EA0EF" d="M38.377 27.573h-15.98c-.605 0-1.095.49-1.095 1.096v.247c0 .605.49 1.095 1.095 1.095h15.98c.605 0 1.096-.49 1.096-1.095v-.247c0-.605-.49-1.096-1.096-1.096zm0 4.37h-15.98c-.605 0-1.095.49-1.095 1.095v.247c0 .605.49 1.095 1.095 1.095h15.98c.605 0 1.096-.49 1.096-1.096v-.246c0-.605-.49-1.096-1.096-1.096zm-6.718 4.366h-9.262c-.605 0-1.095.49-1.095 1.096v.246c0 .605.49 1.096 1.095 1.096h9.262c.605 0 1.096-.49 1.096-1.096v-.247c0-.605-.49-1.095-1.096-1.095z"/><defs><linearGradient id="nK3Kz4hrM4rg8XZF2UcLJ" x1="30.388" x2="30.388" y1="45.391" y2="12.682" gradientUnits="userSpaceOnUse"><stop stop-color="#0078D4"/><stop offset=".817" stop-color="#5EA0EF"/></linearGradient></defs></g></svg></svg><g transform="translate(72.93333435058594, 10)"><g transform="translate(0,-4)"><text y="8.5"><tspan dy="19" x="0" text-anchor="start"><tspan text-decoration="none" font-style="normal" font-size="14px" font-weight="normal" style="font-weight: normal;" fill="#000000">Text Chunks</tspan></tspan></text></g></g><line x1="60.18333435058594" y1="6.25" x2="60.18333435058594" y2="49.75" stroke="#c0def4" stroke-width="1.5px" stroke-linecap="round"/></g></g><g id="icn_Jel6PZvCO7pSOAD4SeBO4" transform="translate(3008,2272)"><g transform="translate(0,0)"><path d="&#xA;    M 0, 21.248&#xA;    C 0, 3.750272 3.750272, 0 21.248, 0&#xA;    L 138.752, 0&#xA;    C 156.249728, 0 160, 3.750272 160, 21.248&#xA;    L 160, 42.751999999999995&#xA;    C 160, 60.249728 156.249728, 64 138.752, 64&#xA;    L 21.248, 64&#xA;    C 3.750272, 64 0, 60.249728 0, 42.751999999999995&#xA;    L 0, 21.248&#xA;  " stroke-width="2" stroke="#c0def4" fill="#e8f3fb"/></g><rect width="170" height="74" x="-5" y="-5" fill="transparent"/><rect width="150" height="54" x="5" y="5" fill="transparent"/><g><svg viewBox="0 0 50 50" width="44" height="44" x="10.050003051757812" y="10"><svg id="gXfmNdkgKDLXtd3yzWDdY" xmlns="http://www.w3.org/2000/svg" viewBox="8.64 4.58 34.29 41.6" width="50" height="50"><g fill="none" fill-rule="evenodd"><path fill="#fff" d="M28.07 5.689H11.044A1.345 1.345 0 0 0 9.7 7.036v36.71a1.345 1.345 0 0 0 1.345 1.347h29.502a1.344 1.344 0 0 0 1.334-1.346V19.45a1.344 1.344 0 0 0-1.334-1.346h-9.79a1.344 1.344 0 0 1-1.334-1.345V7.036a1.333 1.333 0 0 0-1.354-1.347Z"/><path fill="url(#XacsnsddfZfF3vrhdSGOb)" d="M27.447 7.409v9.22a3.386 3.386 0 0 0 3.378 3.384h9.289v23.36H11.478V7.41h15.97Zm.651-2.018h-17.27a1.365 1.365 0 0 0-1.365 1.367v37.267a1.365 1.365 0 0 0 1.364 1.366h29.938a1.365 1.365 0 0 0 1.364-1.366V19.36a1.365 1.365 0 0 0-1.364-1.364h-9.94a1.366 1.366 0 0 1-1.362-1.367V6.758a1.365 1.365 0 0 0-1.365-1.367Z"/><path fill="#0078D4" d="M41.61 18.267 28.991 5.689v10.249a2.312 2.312 0 0 0 2.3 2.329h10.317Z"/><path fill="#5EA0EF" d="M35.565 23.605h-19.54c-.74 0-1.34.6-1.34 1.34v.3c0 .74.6 1.34 1.34 1.34h19.54c.74 0 1.34-.6 1.34-1.34v-.3c0-.74-.6-1.34-1.34-1.34zm0 5.34h-19.54c-.74 0-1.34.6-1.34 1.34v.3c0 .74.6 1.34 1.34 1.34h19.54c.74 0 1.34-.6 1.34-1.34v-.3c0-.74-.6-1.34-1.34-1.34zm-8.216 5.34H16.025c-.74 0-1.34.6-1.34 1.34v.3c0 .74.6 1.34 1.34 1.34h11.324c.74 0 1.34-.6 1.34-1.34v-.3c0-.74-.6-1.34-1.34-1.34z"/><defs><linearGradient id="XacsnsddfZfF3vrhdSGOb" x1="25.796" x2="25.796" y1="45.391" y2="5.391" gradientUnits="userSpaceOnUse"><stop stop-color="#0078D4"/><stop offset=".817" stop-color="#5EA0EF"/></linearGradient></defs></g></svg></svg><g transform="translate(78.05000305175781, 10)"><g transform="translate(0,-4)"><text y="3"><tspan dy="19" x="0" text-anchor="start"><tspan text-decoration="none" font-style="normal" font-size="14px" font-weight="normal" style="font-weight: normal;" fill="#000000">Document </tspan></tspan><tspan dy="19" x="0" text-anchor="start"><tspan text-decoration="none" font-style="normal" font-size="14px" font-weight="normal" style="font-weight: normal;" fill="#000000">Text</tspan></tspan></text></g></g><line x1="65.30000305175781" y1="7.25" x2="65.30000305175781" y2="56.75" stroke="#c0def4" stroke-width="1.5px" stroke-linecap="round"/></g></g><g id="icn_Ba912qXjZwBMlVylBfXrE" transform="translate(3232,2400)"><g transform="translate(0,0)"><path d="&#xA;    M 0, 21.248&#xA;    C 0, 3.750272 3.750272, 0 21.248, 0&#xA;    L 154.752, 0&#xA;    C 172.249728, 0 176, 3.750272 176, 21.248&#xA;    L 176, 42.751999999999995&#xA;    C 176, 60.249728 172.249728, 64 154.752, 64&#xA;    L 21.248, 64&#xA;    C 3.750272, 64 0, 60.249728 0, 42.751999999999995&#xA;    L 0, 21.248&#xA;  " stroke-width="2" stroke="#c2e1d2" fill="#e8f4ee"/></g><rect width="186" height="74" x="-5" y="-5" fill="transparent"/><rect width="166" height="54" x="5" y="5" fill="transparent"/><g><svg viewBox="0 0 50 50" width="44" height="44" x="12.666671752929688" y="10"><svg id="5IvCXb7t-UEiy0gtFb6Pw" xmlns="http://www.w3.org/2000/svg" viewBox="4.58 7.45 41.6 35.73" width="50" height="50"><g fill="none" fill-rule="evenodd"><path fill="url(#wYaqk_v40X9D9CxBKCBab)" d="M45.395 27.75a8.987 8.987 0 0 0-7.8-8.637A11.333 11.333 0 0 0 25.928 8.279a11.62 11.62 0 0 0-11.111 7.574A10.722 10.722 0 0 0 5.395 26.17a10.889 10.889 0 0 0 11.262 10.46c.336 0 .667-.016.993-.043h18.238c.163-.002.326-.027.482-.073a9.096 9.096 0 0 0 9.025-8.764Z"/><path fill="#32BEDD" d="M32.21 31.597H18.077a.613.613 0 0 0-.627.6v3.85a.613.613 0 0 0 .625.6H32.21a.613.613 0 0 0 .625-.6v-3.85a.616.616 0 0 0-.625-.6Z"/><path fill="#198AB3" d="M32.21 37.395H18.077a.615.615 0 0 0-.627.6v3.847a.616.616 0 0 0 .625.602H32.21a.612.612 0 0 0 .625-.602v-3.847a.615.615 0 0 0-.625-.6Z"/><path fill="#B4EC36" d="M30.44 32.542h.828a.16.16 0 0 1 .16.16v.79a.154.154 0 0 1-.153.154h-.842a.154.154 0 0 1-.154-.153v-.798a.16.16 0 0 1 .16-.153zm-.005 1.902h.835a.16.16 0 0 1 .16.16v.784a.16.16 0 0 1-.16.16h-.83a.16.16 0 0 1-.16-.16v-.79a.152.152 0 0 1 .095-.143.152.152 0 0 1 .06-.011zm.046 3.867h.836a.16.16 0 0 1 .16.16v.79a.153.153 0 0 1-.153.154h-.836a.16.16 0 0 1-.16-.16v-.782a.153.153 0 0 1 .153-.162zm0 1.902h.836a.16.16 0 0 1 .16.16v.79a.153.153 0 0 1-.153.154h-.843a.154.154 0 0 1-.153-.153v-.798a.154.154 0 0 1 .154-.153z"/><path fill="#50E6FF" d="M32.077 25.346H17.944a.611.611 0 0 0-.627.602v3.858a.615.615 0 0 0 .624.602h14.136a.616.616 0 0 0 .624-.602v-3.858a.616.616 0 0 0-.624-.602Z"/><path fill="#fff" d="M30.301 26.293h.836a.16.16 0 0 1 .16.16v.79a.154.154 0 0 1-.153.154h-.838a.16.16 0 0 1-.16-.16v-.79a.152.152 0 0 1 .096-.143.152.152 0 0 1 .06-.011zm0 1.902h.836a.16.16 0 0 1 .16.16v.785a.152.152 0 0 1-.095.141.154.154 0 0 1-.058.012h-.842a.153.153 0 0 1-.154-.153v-.798a.154.154 0 0 1 .154-.147zm.95-6.389-5.4 5.4a.644.644 0 0 1-.912 0l-5.4-5.4a.29.29 0 0 1 .205-.491h3.32a.286.286 0 0 0 .286-.287v-6.746a.222.222 0 0 1 .223-.223h3.635a.223.223 0 0 1 .222.223v6.749a.287.287 0 0 0 .287.286h3.32a.29.29 0 0 1 .29.34.29.29 0 0 1-.077.15z"/><defs><linearGradient id="wYaqk_v40X9D9CxBKCBab" x1="25.395" x2="25.395" y1="36.631" y2="8.279" gradientUnits="userSpaceOnUse"><stop stop-color="#0078D4"/><stop offset=".156" stop-color="#1380DA"/><stop offset=".528" stop-color="#3C91E5"/><stop offset=".822" stop-color="#559CEC"/><stop offset="1" stop-color="#5EA0EF"/></linearGradient></defs></g></svg></svg><g transform="translate(80.66667175292969, 10)"><g transform="translate(0,-4)"><text y="12.5"><tspan dy="19" x="0" text-anchor="start"><tspan text-decoration="none" font-style="normal" font-size="14px" font-weight="normal" style="font-weight: normal;" fill="#000000">Vector Store</tspan></tspan></text></g></g><line x1="67.91667175292969" y1="7.25" x2="67.91667175292969" y2="56.75" stroke="#c2e1d2" stroke-width="1.5px" stroke-linecap="round"/></g></g><g id="icn_S8lxBaBCVD6u9AOtIyXLc" transform="translate(3472,2400)"><g transform="translate(0,0)"><path d="&#xA;    M 0, 21.248&#xA;    C 0, 3.750272 3.750272, 0 21.248, 0&#xA;    L 42.751999999999995, 0&#xA;    C 60.249728, 0 64, 3.750272 64, 21.248&#xA;    L 64, 42.751999999999995&#xA;    C 64, 60.249728 60.249728, 64 42.751999999999995, 64&#xA;    L 21.248, 64&#xA;    C 3.750272, 64 0, 60.249728 0, 42.751999999999995&#xA;    L 0, 21.248&#xA;  " stroke-width="2" stroke="#e3d5f0" fill="#f5eff9"/></g><rect width="74" height="74" x="-5" y="-5" fill="transparent"/><rect width="54" height="54" x="5" y="5" fill="transparent"/><g><svg viewBox="0 0 50 50" width="40" height="40" x="12" y="12"><svg id="KpJgiUGDEXyvMoon1nF_A" xmlns="http://www.w3.org/2000/svg" fill="none" viewBox="0 0 24 25" width="50" height="50"><g clip-path="url(#LKL2xZj_ReLy8AYpepOjn)"><path fill="#000" d="m17.7 8.1-2.4-1.2V3L21 6c.2.1.3.3.3.5v7L18 11.6v-3c0-.2-.1-.4-.3-.5Zm-2.4 9.1-3.4-1.7v-3.1c0-.2-.1-.4-.3-.5l-2.4-1.2V6.8l3.4 1.8v3.1c0 .2.1.4.3.5l2.4 1.2v3.8Zm-6 3.8-5.8-3c-.2-.1-.3-.3-.3-.5v-6.9l3.4 1.7v3.1c0 .2.1.4.3.5l2.4 1.2V21ZM24 4.7c0-.2-.1-.4-.3-.5L15.6 0h-.5L13 1.3c-.2.1-.3.3-.3.5v3.7L9.6 3.9c-.1-.1-.3 0-.4 0h-.1L6.9 5.3c-.2.1-.3.3-.3.4v3.6L3.5 7.7c-.1-.1-.3-.1-.4 0h-.2l-2 1.4c-.2.1-.3.3-.3.5v9.7c0 .2.1.4.3.5l8 4.2H9c.2.1.4.1.6 0l2.1-1.3.1-.1c.1-.1.2-.2.2-.4v-3.6l3 1.6h.1c.1 0 .2.1.3 0 .1 0 .2 0 .3-.1l2.1-1.3c.1 0 .1-.1.1-.1.1-.1.2-.2.2-.4v-3.6l3 1.6h.1c.2.1.4.1.5 0l2.1-1.3c.1 0 .1-.1.1-.1.1-.1.2-.2.2-.4V4.7H24Z"/></g><defs><clipPath id="LKL2xZj_ReLy8AYpepOjn"><path fill="#fff" d="M0 0h24v25H0z"/></clipPath></defs></svg></svg><g transform="translate(-5.383331298828125, 68)"><g transform="translate(0,-4)"><text><tspan dy="19" x="37.39166259765625" text-anchor="middle"><tspan text-decoration="none" font-style="normal" font-size="14px" font-weight="normal" style="font-weight: normal;" fill="#000000">Embedding</tspan></tspan></text></g></g></g></g><g id="icn_RMeOWs7dvcvOrVgyhNMRM" transform="translate(3232,2496)"><g transform="translate(0,0)"><path d="&#xA;    M 0, 21.248&#xA;    C 0, 3.750272 3.750272, 0 21.248, 0&#xA;    L 42.751999999999995, 0&#xA;    C 60.249728, 0 64, 3.750272 64, 21.248&#xA;    L 64, 42.751999999999995&#xA;    C 64, 60.249728 60.249728, 64 42.751999999999995, 64&#xA;    L 21.248, 64&#xA;    C 3.750272, 64 0, 60.249728 0, 42.751999999999995&#xA;    L 0, 21.248&#xA;  " stroke-width="2" stroke="#c2e1d2" fill="#e8f4ee"/></g><rect width="74" height="74" x="-5" y="-5" fill="transparent"/><rect width="54" height="54" x="5" y="5" fill="transparent"/><g><svg viewBox="0 0 50 50" width="40" height="40" x="12" y="12"><svg id="Ys3H7M3HWM_zy0NY9ygr8" xmlns="http://www.w3.org/2000/svg" viewBox="5.84 4.53 39.62 40.56" width="50" height="50"><g fill="none" fill-rule="evenodd"><path fill="#198AB3" d="M19.756 27.655 7.33 40.082a2.377 2.377 0 0 0 0 3.362l.233.234a2.378 2.378 0 0 0 3.363 0l12.426-12.427a2.378 2.378 0 0 0 0-3.362l-.233-.234a2.378 2.378 0 0 0-3.363 0Z"/><path fill="url(#KuZdT6uIADDIEkMcTXLKy)" d="M29.428 35.996c8.46 0 15.318-6.859 15.318-15.319S37.888 5.36 29.428 5.36 14.11 12.217 14.11 20.677s6.858 15.319 15.318 15.319Z"/><path fill="#fff" d="M29.396 32.436c6.645 0 12.032-5.387 12.032-12.032 0-6.645-5.387-12.032-12.032-12.032-6.645 0-12.032 5.387-12.032 12.032 0 6.645 5.387 12.032 12.032 12.032Z"/><path fill="#C3F1FF" d="M17.738 23.38S21.031 6.9 36.42 10.638a11.795 11.795 0 0 0-14.196.108 11.752 11.752 0 0 0-4.486 12.636Z"/><defs><radialGradient id="KuZdT6uIADDIEkMcTXLKy" cx="0" cy="0" r="1" gradientTransform="translate(29.428 20.677) scale(15.3182)" gradientUnits="userSpaceOnUse"><stop offset=".225" stop-color="#32D4F5"/><stop offset=".59" stop-color="#32D2F2"/><stop offset=".825" stop-color="#32CAEA"/><stop offset="1" stop-color="#32BEDD"/></radialGradient></defs></g></svg></svg><g transform="translate(1.8166656494140625, 68)"><g transform="translate(0,-4)"><text><tspan dy="19" x="30.183334350585938" text-anchor="middle"><tspan text-decoration="none" font-style="normal" font-size="14px" font-weight="normal" style="font-weight: normal;" fill="#000000">Similarity</tspan></tspan></text></g></g></g></g><g id="icn_RLYg30slAGRpGufcTjrVd" transform="translate(2880,2400)"><g transform="translate(0,0)"><path d="&#xA;    M 0, 21.248&#xA;    C 0, 3.750272 3.750272, 0 21.248, 0&#xA;    L 42.751999999999995, 0&#xA;    C 60.249728, 0 64, 3.750272 64, 21.248&#xA;    L 64, 42.751999999999995&#xA;    C 64, 60.249728 60.249728, 64 42.751999999999995, 64&#xA;    L 21.248, 64&#xA;    C 3.750272, 64 0, 60.249728 0, 42.751999999999995&#xA;    L 0, 21.248&#xA;  " stroke-width="2" stroke="#e3d5f0" fill="#f5eff9"/></g><rect width="74" height="74" x="-5" y="-5" fill="transparent"/><rect width="54" height="54" x="5" y="5" fill="transparent"/><g><svg viewBox="0 0 50 50" width="40" height="40" x="12" y="12"><svg id="TiHkVrVKx0pEpkd96On-e" xmlns="http://www.w3.org/2000/svg" fill="none" viewBox="0 0 24 25" width="50" height="50"><g clip-path="url(#-zDeBFs__GGommu45b5x-)"><path fill="#000" d="m17.7 8.1-2.4-1.2V3L21 6c.2.1.3.3.3.5v7L18 11.6v-3c0-.2-.1-.4-.3-.5Zm-2.4 9.1-3.4-1.7v-3.1c0-.2-.1-.4-.3-.5l-2.4-1.2V6.8l3.4 1.8v3.1c0 .2.1.4.3.5l2.4 1.2v3.8Zm-6 3.8-5.8-3c-.2-.1-.3-.3-.3-.5v-6.9l3.4 1.7v3.1c0 .2.1.4.3.5l2.4 1.2V21ZM24 4.7c0-.2-.1-.4-.3-.5L15.6 0h-.5L13 1.3c-.2.1-.3.3-.3.5v3.7L9.6 3.9c-.1-.1-.3 0-.4 0h-.1L6.9 5.3c-.2.1-.3.3-.3.4v3.6L3.5 7.7c-.1-.1-.3-.1-.4 0h-.2l-2 1.4c-.2.1-.3.3-.3.5v9.7c0 .2.1.4.3.5l8 4.2H9c.2.1.4.1.6 0l2.1-1.3.1-.1c.1-.1.2-.2.2-.4v-3.6l3 1.6h.1c.1 0 .2.1.3 0 .1 0 .2 0 .3-.1l2.1-1.3c.1 0 .1-.1.1-.1.1-.1.2-.2.2-.4v-3.6l3 1.6h.1c.2.1.4.1.5 0l2.1-1.3c.1 0 .1-.1.1-.1.1-.1.2-.2.2-.4V4.7H24Z"/></g><defs><clipPath id="-zDeBFs__GGommu45b5x-"><path fill="#fff" d="M0 0h24v25H0z"/></clipPath></defs></svg></svg><g transform="translate(-5.383331298828125, 68)"><g transform="translate(0,-4)"><text><tspan dy="19" x="37.39166259765625" text-anchor="middle"><tspan text-decoration="none" font-style="normal" font-size="14px" font-weight="normal" style="font-weight: normal;" fill="#000000">Embedding</tspan></tspan></text></g></g></g></g><g id="icn_tqq66ACFXe2roMIO5z7qE" transform="translate(3008,2400)"><g transform="translate(0,0)"><path d="&#xA;    M 0, 21.248&#xA;    C 0, 3.750272 3.750272, 0 21.248, 0&#xA;    L 138.752, 0&#xA;    C 156.249728, 0 160, 3.750272 160, 21.248&#xA;    L 160, 42.751999999999995&#xA;    C 160, 60.249728 156.249728, 64 138.752, 64&#xA;    L 21.248, 64&#xA;    C 3.750272, 64 0, 60.249728 0, 42.751999999999995&#xA;    L 0, 21.248&#xA;  " stroke-width="2" stroke="#f7d1d2" fill="#fceeee"/></g><rect width="170" height="74" x="-5" y="-5" fill="transparent"/><rect width="150" height="54" x="5" y="5" fill="transparent"/><g><svg viewBox="0 0 50 50" width="38.83332824707031" height="44" x="10" y="10"><svg id="c1yHcP-N5inSNoaUeD9Z-" xmlns="http://www.w3.org/2000/svg" viewBox="0 0 640 512" width="50" height="50"><path fill="#232F3D" d="M128 256c0 35.346-28.654 64-64 64S0 291.346 0 256s28.654-64 64-64 64 28.654 64 64zM64 384c-17.673 0-32 14.327-32 32s14.327 32 32 32 32-14.327 32-32-14.327-32-32-32zm0-352C28.654 32 0 60.654 0 96s28.654 64 64 64 64-28.654 64-64-28.654-64-64-64zm160 192c-17.673 0-32 14.327-32 32s14.327 32 32 32 32-14.327 32-32-14.327-32-32-32zm0 160c-17.673 0-32 14.327-32 32s14.327 32 32 32 32-14.327 32-32-14.327-32-32-32zm0-352c-35.346 0-64 28.654-64 64s28.654 64 64 64 64-28.654 64-64-28.654-64-64-64zm224 192c-17.673 0-32 14.327-32 32s14.327 32 32 32 32-14.327 32-32-14.327-32-32-32zm0 160c-17.673 0-32 14.327-32 32s14.327 32 32 32 32-14.327 32-32-14.327-32-32-32zm0-352c-35.346 0-64 28.654-64 64s28.654 64 64 64 64-28.654 64-64-28.654-64-64-64zm160 192c-17.673 0-32 14.327-32 32s14.327 32 32 32 32-14.327 32-32-14.327-32-32-32zm0 160c-17.673 0-32 14.327-32 32s14.327 32 32 32 32-14.327 32-32-14.327-32-32-32zm0-320c-17.673 0-32 14.327-32 32s14.327 32 32 32 32-14.327 32-32-14.327-32-32-32z"/></svg></svg><g transform="translate(72.83332824707031, 10)"><g transform="translate(0,-4)"><text y="3"><tspan dy="19" x="0" text-anchor="start"><tspan text-decoration="none" font-style="normal" font-size="14px" font-weight="normal" style="font-weight: normal;" fill="#000000">Query </tspan><tspan text-decoration="none" font-style="normal" font-size="14px" font-weight="normal" style="font-weight: normal;" fill="#000000" dy="19" x="0">Vector</tspan></tspan></text></g></g><line x1="60.08332824707031" y1="7.25" x2="60.08332824707031" y2="56.75" stroke="#f7d1d2" stroke-width="1.5px" stroke-linecap="round"/></g></g><g id="icn_r6j9nSgHoNKu6mNFvpfEw" transform="translate(3120,2624)"><g transform="translate(0,0)"><path d="&#xA;    M 0, 21.248&#xA;    C 0, 3.750272 3.750272, 0 21.248, 0&#xA;    L 154.752, 0&#xA;    C 172.249728, 0 176, 3.750272 176, 21.248&#xA;    L 176, 42.751999999999995&#xA;    C 176, 60.249728 172.249728, 64 154.752, 64&#xA;    L 21.248, 64&#xA;    C 3.750272, 64 0, 60.249728 0, 42.751999999999995&#xA;    L 0, 21.248&#xA;  " stroke-width="2" stroke="#f7d1d2" fill="#fceeee"/></g><rect width="186" height="74" x="-5" y="-5" fill="transparent"/><rect width="166" height="54" x="5" y="5" fill="transparent"/><g><svg viewBox="0 0 50 50" width="39.25" height="44" x="10" y="10"><svg id="rMUr-vplFtHDR0lZmr0fW" xmlns="http://www.w3.org/2000/svg" viewBox="0 0 448 512" width="50" height="50"><path fill="#232F3D" d="M12.83 352h262.34A12.82 12.82 0 0 0 288 339.17v-38.34A12.82 12.82 0 0 0 275.17 288H12.83A12.82 12.82 0 0 0 0 300.83v38.34A12.82 12.82 0 0 0 12.83 352zm0-256h262.34A12.82 12.82 0 0 0 288 83.17V44.83A12.82 12.82 0 0 0 275.17 32H12.83A12.82 12.82 0 0 0 0 44.83v38.34A12.82 12.82 0 0 0 12.83 96zM432 160H16a16 16 0 0 0-16 16v32a16 16 0 0 0 16 16h416a16 16 0 0 0 16-16v-32a16 16 0 0 0-16-16zm0 256H16a16 16 0 0 0-16 16v32a16 16 0 0 0 16 16h416a16 16 0 0 0 16-16v-32a16 16 0 0 0-16-16z"/></svg></svg><g transform="translate(73.25, 10)"><g transform="translate(0,-4)"><text y="3"><tspan dy="19" x="0" text-anchor="start"><tspan text-decoration="none" font-style="normal" font-size="14px" font-weight="normal" style="font-weight: normal;" fill="#000000">Related Text </tspan><tspan text-decoration="none" font-style="normal" font-size="14px" font-weight="normal" style="font-weight: normal;" fill="#000000" dy="19" x="0">Chunks</tspan></tspan></text></g></g><line x1="60.5" y1="7.25" x2="60.5" y2="56.75" stroke="#f7d1d2" stroke-width="1.5px" stroke-linecap="round"/></g></g><g id="icn_VAdgRaW24s3zYop695kod" transform="translate(2624,2400)"><g transform="translate(0,0)"><path d="&#xA;    M 0, 21.248&#xA;    C 0, 3.750272 3.750272, 0 21.248, 0&#xA;    L 138.752, 0&#xA;    C 156.249728, 0 160, 3.750272 160, 21.248&#xA;    L 160, 42.751999999999995&#xA;    C 160, 60.249728 156.249728, 64 138.752, 64&#xA;    L 21.248, 64&#xA;    C 3.750272, 64 0, 60.249728 0, 42.751999999999995&#xA;    L 0, 21.248&#xA;  " stroke-width="2" stroke="#f7d1d2" fill="#fceeee"/></g><rect width="170" height="74" x="-5" y="-5" fill="transparent"/><rect width="150" height="54" x="5" y="5" fill="transparent"/><g><svg viewBox="0 0 50 50" width="44" height="44" x="25.899993896484375" y="10"><svg id="q3MDjRfNV_EqjMDgHKOFt" xmlns="http://www.w3.org/2000/svg" viewBox="0 0 512 512" width="50" height="50"><path fill="#232F3D" d="M256 32C114.6 32 0 125.1 0 240c0 49.6 21.4 95 57 130.7C44.5 421.1 2.7 466 2.2 466.5c-2.2 2.3-2.8 5.7-1.5 8.7S4.8 480 8 480c66.3 0 116-31.8 140.6-51.4 32.7 12.3 69 19.4 107.4 19.4 141.4 0 256-93.1 256-208S397.4 32 256 32z"/></svg></svg><g transform="translate(93.89999389648438, 10)"><g transform="translate(0,-4)"><text y="12.5"><tspan dy="19" x="0" text-anchor="start"><tspan text-decoration="none" font-style="normal" font-size="14px" font-weight="normal" style="font-weight: normal;" fill="#000000">Query</tspan></tspan></text></g></g><line x1="81.14999389648438" y1="7.25" x2="81.14999389648438" y2="56.75" stroke="#f7d1d2" stroke-width="1.5px" stroke-linecap="round"/></g></g><g id="icn_nF4UPGHe8J4adK7OU2rek" transform="translate(2624,2496)"><g transform="translate(0,0)"><path d="&#xA;    M 0, 21.248&#xA;    C 0, 3.750272 3.750272, 0 21.248, 0&#xA;    L 138.752, 0&#xA;    C 156.249728, 0 160, 3.750272 160, 21.248&#xA;    L 160, 42.751999999999995&#xA;    C 160, 60.249728 156.249728, 64 138.752, 64&#xA;    L 21.248, 64&#xA;    C 3.750272, 64 0, 60.249728 0, 42.751999999999995&#xA;    L 0, 21.248&#xA;  " stroke-width="2" stroke="#fad2b8" fill="#fdefe5"/></g><rect width="170" height="74" x="-5" y="-5" fill="transparent"/><rect width="150" height="54" x="5" y="5" fill="transparent"/><g><svg viewBox="0 0 50 50" width="44" height="44" x="23.183334350585938" y="10"><svg id="0OkhYjdyLt-aV5N4mMWNS" xmlns="http://www.w3.org/2000/svg" viewBox="0 0 576 512" width="50" height="50"><path fill="#232F3D" d="M416 192c0-88.4-93.1-160-208-160S0 103.6 0 192c0 34.3 14.1 65.9 38 92-13.4 30.2-35.5 54.2-35.8 54.5-2.2 2.3-2.8 5.7-1.5 8.7S4.8 352 8 352c36.6 0 66.9-12.3 88.7-25 32.2 15.7 70.3 25 111.3 25 114.9 0 208-71.6 208-160zm122 220c23.9-26 38-57.7 38-92 0-66.9-53.5-124.2-129.3-148.1.9 6.6 1.3 13.3 1.3 20.1 0 105.9-107.7 192-240 192-10.8 0-21.3-.8-31.7-1.9C207.8 439.6 281.8 480 368 480c41 0 79.1-9.2 111.3-25 21.8 12.7 52.1 25 88.7 25 3.2 0 6.1-1.9 7.3-4.8 1.3-2.9.7-6.3-1.5-8.7-.3-.3-22.4-24.2-35.8-54.5z"/></svg></svg><g transform="translate(91.18333435058594, 10)"><g transform="translate(0,-4)"><text y="12.5"><tspan dy="19" x="0" text-anchor="start"><tspan text-decoration="none" font-style="normal" font-size="14px" font-weight="normal" style="font-weight: normal;" fill="#000000">Output</tspan></tspan></text></g></g><line x1="78.43333435058594" y1="7.25" x2="78.43333435058594" y2="56.75" stroke="#fad2b8" stroke-width="1.5px" stroke-linecap="round"/></g></g><g id="icn_JySlR6dvjRUV2vE2dVkBU" transform="translate(2880,2624)"><g transform="translate(0,0)"><path d="&#xA;    M 0, 21.248&#xA;    C 0, 3.750272 3.750272, 0 21.248, 0&#xA;    L 138.752, 0&#xA;    C 156.249728, 0 160, 3.750272 160, 21.248&#xA;    L 160, 42.751999999999995&#xA;    C 160, 60.249728 156.249728, 64 138.752, 64&#xA;    L 21.248, 64&#xA;    C 3.750272, 64 0, 60.249728 0, 42.751999999999995&#xA;    L 0, 21.248&#xA;  " stroke-width="2" stroke="#fad2b8" fill="#fdefe5"/></g><rect width="170" height="74" x="-5" y="-5" fill="transparent"/><rect width="150" height="54" x="5" y="5" fill="transparent"/><g><svg viewBox="0 0 50 50" width="44" height="44" x="22" y="10"><svg id="iPvJog8Q9_p2rmJvh2ni-" xmlns="http://www.w3.org/2000/svg" viewBox="7.83 4.58 34.29 41.6" width="50" height="50"><g fill="none" fill-rule="evenodd"><path fill="#fff" d="M27.384 5.681h-17.14a1.359 1.359 0 0 0-1.358 1.36v36.71a1.359 1.359 0 0 0 1.359 1.358h29.51a1.359 1.359 0 0 0 1.36-1.359V19.46a1.359 1.359 0 0 0-1.36-1.36h-9.797a1.335 1.335 0 0 1-1.335-1.334V7.04a1.335 1.335 0 0 0-1.24-1.359Z"/><path fill="url(#pCsrmbZa7IuztZ7_flj6-)" d="M26.645 7.398v9.225a3.385 3.385 0 0 0 3.385 3.385h9.273v23.384H10.697V7.398H26.67h-.024Zm.739-2.003H10.03a1.359 1.359 0 0 0-1.383 1.359v37.282a1.358 1.358 0 0 0 1.383 1.359h29.94a1.361 1.361 0 0 0 1.383-1.359V19.364a1.359 1.359 0 0 0-1.383-1.359h-9.94a1.359 1.359 0 0 1-1.359-1.382V6.754a1.359 1.359 0 0 0-1.287-1.359Z"/><path fill="#0078D4" d="M40.828 18.244 28.194 5.68V15.86a2.384 2.384 0 0 0 2.384 2.384h10.25Z"/><path fill="#83B9F9" d="M35.155 24.18H20.232a.977.977 0 1 0 0 1.954H35.25a.977.977 0 0 0 0-1.955h-.095Zm0 5.816H20.232a.977.977 0 1 0 0 1.93H35.25a.977.977 0 1 0 0-1.93h-.095Zm0 5.84H20.232a.977.977 0 1 0 0 1.955H35.25a.977.977 0 0 0 0-1.955h-.095Z"/><path fill="#0078D4" d="M14.964 27.111v-3.146c-.14.08-.293.136-.453.167l-.524.143v-.978c.253-.077.5-.173.739-.286.26-.078.508-.19.739-.333h.763v4.433h-1.264Zm-.93 6.198v-.357a2.381 2.381 0 0 1 0-.62c.078-.18.166-.355.263-.525.2-.229.424-.436.667-.62.187-.108.356-.244.5-.405 0 0 0-.166.168-.214a.334.334 0 0 0 0-.262c0-.31-.167-.453-.525-.453-.379.009-.742.152-1.025.405v-1.073c.21-.118.434-.206.668-.262.222-.025.445-.025.667 0 .397-.015.785.112 1.097.358a1.215 1.215 0 0 1 .405.93c-.006.283-.08.56-.215.81a2.74 2.74 0 0 1-.762.667l-.477.286a.43.43 0 0 0-.143.239h1.74v1l-3.027.096Zm2.957 4.958a1.073 1.073 0 0 1-.453.978c-.375.245-.816.37-1.264.357a2.622 2.622 0 0 1-.62 0l-.548-.166V38.41c.138.087.292.144.453.167.174.027.35.027.525 0 .165.03.335.03.5 0a.453.453 0 0 0 .167-.31.358.358 0 0 0-.286-.357 2.386 2.386 0 0 0-.572-.12h-.334v-.929h.358a.714.714 0 0 0 .548-.143.286.286 0 0 0 .167-.31v-.262c0-.048-.215 0-.405 0a1.86 1.86 0 0 0-.835.238v-.977c.347-.15.72-.23 1.097-.238.412-.025.822.084 1.168.31a.905.905 0 0 1 .381.81c.005.24-.07.475-.214.667-.16.187-.379.313-.62.358a1.002 1.002 0 0 1 .715.358c.067.19.092.394.072.595Z"/><defs><linearGradient id="pCsrmbZa7IuztZ7_flj6-" x1="25" x2="25" y1="45.395" y2="5.395" gradientUnits="userSpaceOnUse"><stop stop-color="#0078D4"/><stop offset=".82" stop-color="#5EA0EF"/></linearGradient></defs></g></svg></svg><g transform="translate(90, 10)"><g transform="translate(0,-4)"><text y="12.5"><tspan dy="19" x="0" text-anchor="start"><tspan text-decoration="none" font-style="normal" font-size="14px" font-weight="normal" style="font-weight: normal;" fill="#000000">Prompt</tspan></tspan></text></g></g><line x1="77.25" y1="7.25" x2="77.25" y2="56.75" stroke="#fad2b8" stroke-width="1.5px" stroke-linecap="round"/></g></g><g id="icn_6SkbMsj2gaskRnAwBRT5j" transform="translate(2624,2272)"><g transform="translate(0,0)"><path d="&#xA;    M 0, 21.248&#xA;    C 0, 3.750272 3.750272, 0 21.248, 0&#xA;    L 138.752, 0&#xA;    C 156.249728, 0 160, 3.750272 160, 21.248&#xA;    L 160, 42.751999999999995&#xA;    C 160, 60.249728 156.249728, 64 138.752, 64&#xA;    L 21.248, 64&#xA;    C 3.750272, 64 0, 60.249728 0, 42.751999999999995&#xA;    L 0, 21.248&#xA;  " stroke-width="2" stroke="#c0def4" fill="#e8f3fb"/></g><rect width="170" height="74" x="-5" y="-5" fill="transparent"/><rect width="150" height="54" x="5" y="5" fill="transparent"/><g><svg viewBox="0 0 50 50" width="38.66667175292969" height="44" x="10" y="10"><svg id="2ufZz3Lw5GHtjtZo6Dl4G" xmlns="http://www.w3.org/2000/svg" fill="none" viewBox="0 0 371 325" width="50" height="50"><path fill="#41A5EE" d="M354.799.91H108.344c-8.511 0-15.415 6.891-15.415 15.392v65.41l138.642 40.391 138.643-40.392v-65.41c0-8.5-6.904-15.39-15.415-15.39Z"/><path fill="#2B7CD3" d="M370.214 81.848H92.929v80.801l138.642 40.392 138.643-40.392v-80.8Z"/><path fill="#185ABD" d="M370.214 162.786H92.929v80.8l138.642 40.392 138.643-40.392v-80.8Z"/><path fill="#103F91" d="M370.214 243.723H92.929v65.174c0 8.471 6.904 15.336 15.415 15.336h246.455c8.511 0 15.415-6.865 15.415-15.336v-65.174Z"/><path fill="#000" fill-opacity=".1" d="M192.846 58.723H92.929v219.26h99.917c8.477-.026 15.343-6.904 15.368-15.391V74.114c-.025-8.487-6.891-15.365-15.368-15.39Z"/><path fill="#000" fill-opacity=".2" d="M181.283 70.286H92.929v219.259h88.345c8.477-.021 15.343-6.899 15.369-15.391V85.677c-.026-8.492-6.892-15.37-15.369-15.391h.009"/><path fill="#000" fill-opacity=".2" d="M181.283 70.286H92.929V266.42h88.345c8.473-.021 15.335-6.89 15.369-15.378V85.664c-.034-8.488-6.896-15.357-15.369-15.378h.009"/><path fill="#000" fill-opacity=".2" d="M169.711 70.286H92.929V266.42h76.782c8.469-.026 15.326-6.895 15.36-15.378V85.664c-.034-8.483-6.891-15.352-15.36-15.378"/><path fill="#185ABD" d="M16.171 70.286h153.943c8.499 0 15.386 6.882 15.386 15.374v153.824c0 8.492-6.887 15.374-15.386 15.374H16.171c-8.498 0-15.385-6.882-15.385-15.374V85.66c0-8.492 6.887-15.374 15.385-15.374Z"/><path fill="#fff" d="M138.803 220.17H118l-24.279-79.486-25.435 79.486H47.483L24.357 104.973h20.816l16.178 80.638 24.279-78.334h17.336l23.125 78.334 16.179-80.638h19.659L138.803 220.17Z"/></svg></svg><g transform="translate(72.66667175292969, 10)"><g transform="translate(0,-4)"><text y="3"><tspan dy="19" x="0" text-anchor="start"><tspan text-decoration="none" font-style="normal" font-size="14px" font-weight="normal" style="font-weight: normal;" fill="#000000">Document </tspan><tspan text-decoration="none" font-style="normal" font-size="14px" font-weight="normal" style="font-weight: normal;" fill="#000000" dy="19" x="0">Metadata</tspan></tspan></text></g></g><line x1="59.91667175292969" y1="7.25" x2="59.91667175292969" y2="56.75" stroke="#c0def4" stroke-width="1.5px" stroke-linecap="round"/></g></g><g id="arr_3kRKnzLJDn49uw8e8jCaE"><marker id="arrowhead_arr_3kRKnzLJDn49uw8e8jCaE" refX="1" refY="3" orient="auto" markerWidth="8" markerHeight="8"><path d="M2.91922181,1.64495663 L4.49787879,4.07365967 C4.64837316,4.30518948 4.58268096,4.61488128 4.35115115,4.76537565 C4.27004602,4.81809399 4.17538993,4.84615385 4.07865698,4.84615385 L0.921343022,4.84615385 C0.645200647,4.84615385 0.421343022,4.62229622 0.421343022,4.34615385 C0.421343022,4.24942089 0.44940288,4.1547648 0.502121214,4.07365967 L2.08077819,1.64495663 C2.23127257,1.41342682 2.54096436,1.34773462 2.77249418,1.498229 C2.83112579,1.53633954 2.88111126,1.58632502 2.91922181,1.64495663 Z" fill="hsl(0, 0%, 52.3%)" transform="translate(2.500000, 2.923077) rotate(90.000000) translate(-2.500000, -2.923077)"/></marker><path id="arr_3kRKnzLJDn49uw8e8jCaE_path" style="stroke-width: 3px; stroke: rgb(133, 133, 133);" stroke-linecap="round" marker-end="url(#arrowhead_arr_3kRKnzLJDn49uw8e8jCaE)" d="M 3264 2590 L 3264 2612  " fill="none" pointer-events="stroke" stroke-linejoin="round"/><path style="stroke-width: 4px; stroke: transparent;" d="M 3264 2590 L 3264 2612  " fill="none" pointer-events="stroke"/></g><g id="arr_MT2UpXW5SSsSfg4vcpuOC"><marker id="arrowhead_arr_MT2UpXW5SSsSfg4vcpuOC" refX="1" refY="3" orient="auto" markerWidth="8" markerHeight="8"><path d="M2.91922181,1.64495663 L4.49787879,4.07365967 C4.64837316,4.30518948 4.58268096,4.61488128 4.35115115,4.76537565 C4.27004602,4.81809399 4.17538993,4.84615385 4.07865698,4.84615385 L0.921343022,4.84615385 C0.645200647,4.84615385 0.421343022,4.62229622 0.421343022,4.34615385 C0.421343022,4.24942089 0.44940288,4.1547648 0.502121214,4.07365967 L2.08077819,1.64495663 C2.23127257,1.41342682 2.54096436,1.34773462 2.77249418,1.498229 C2.83112579,1.53633954 2.88111126,1.58632502 2.91922181,1.64495663 Z" fill="hsl(0, 0%, 52.3%)" transform="translate(2.500000, 2.923077) rotate(90.000000) translate(-2.500000, -2.923077)"/></marker><path id="arr_MT2UpXW5SSsSfg4vcpuOC_path" style="stroke-width: 3px; stroke: rgb(133, 133, 133);" stroke-linecap="round" marker-end="url(#arrowhead_arr_MT2UpXW5SSsSfg4vcpuOC)" d="M 2789 2304 L 2868 2304  " fill="none" pointer-events="stroke" stroke-linejoin="round"/><path style="stroke-width: 4px; stroke: transparent;" d="M 2789 2304 L 2868 2304  " fill="none" pointer-events="stroke"/></g><g id="arr_NY9rDmbWYB0L6jgdfMojV"><marker id="arrowhead_arr_NY9rDmbWYB0L6jgdfMojV" refX="1" refY="3" orient="auto" markerWidth="8" markerHeight="8"><path d="M2.91922181,1.64495663 L4.49787879,4.07365967 C4.64837316,4.30518948 4.58268096,4.61488128 4.35115115,4.76537565 C4.27004602,4.81809399 4.17538993,4.84615385 4.07865698,4.84615385 L0.921343022,4.84615385 C0.645200647,4.84615385 0.421343022,4.62229622 0.421343022,4.34615385 C0.421343022,4.24942089 0.44940288,4.1547648 0.502121214,4.07365967 L2.08077819,1.64495663 C2.23127257,1.41342682 2.54096436,1.34773462 2.77249418,1.498229 C2.83112579,1.53633954 2.88111126,1.58632502 2.91922181,1.64495663 Z" fill="hsl(0, 0%, 52.3%)" transform="translate(2.500000, 2.923077) rotate(90.000000) translate(-2.500000, -2.923077)"/></marker><path id="arr_NY9rDmbWYB0L6jgdfMojV_path" style="stroke-width: 3px; stroke: rgb(133, 133, 133);" stroke-linecap="round" marker-end="url(#arrowhead_arr_NY9rDmbWYB0L6jgdfMojV)" d="M 3504 2341 L 3504 2388  " fill="none" pointer-events="stroke" stroke-linejoin="round"/><path style="stroke-width: 4px; stroke: transparent;" d="M 3504 2341 L 3504 2388  " fill="none" pointer-events="stroke"/></g><g id="arr_Oglc0GprmeCbIhtdRIW0d"><marker id="arrowhead_arr_Oglc0GprmeCbIhtdRIW0d" refX="1" refY="3" orient="auto" markerWidth="8" markerHeight="8"><path d="M2.91922181,1.64495663 L4.49787879,4.07365967 C4.64837316,4.30518948 4.58268096,4.61488128 4.35115115,4.76537565 C4.27004602,4.81809399 4.17538993,4.84615385 4.07865698,4.84615385 L0.921343022,4.84615385 C0.645200647,4.84615385 0.421343022,4.62229622 0.421343022,4.34615385 C0.421343022,4.24942089 0.44940288,4.1547648 0.502121214,4.07365967 L2.08077819,1.64495663 C2.23127257,1.41342682 2.54096436,1.34773462 2.77249418,1.498229 C2.83112579,1.53633954 2.88111126,1.58632502 2.91922181,1.64495663 Z" fill="hsl(0, 0%, 52.3%)" transform="translate(2.500000, 2.923077) rotate(90.000000) translate(-2.500000, -2.923077)"/></marker><path id="arr_Oglc0GprmeCbIhtdRIW0d_path" style="stroke-width: 3px; stroke: rgb(133, 133, 133);" stroke-linecap="round" marker-end="url(#arrowhead_arr_Oglc0GprmeCbIhtdRIW0d)" d="M 2949 2304 L 2996 2304  " fill="none" pointer-events="stroke" stroke-linejoin="round"/><path style="stroke-width: 4px; stroke: transparent;" d="M 2949 2304 L 2996 2304  " fill="none" pointer-events="stroke"/></g><g id="arr_QRuPfKceZKYR0JxYzM8ps"><marker id="arrowhead_arr_QRuPfKceZKYR0JxYzM8ps" refX="1" refY="3" orient="auto" markerWidth="8" markerHeight="8"><path d="M2.91922181,1.64495663 L4.49787879,4.07365967 C4.64837316,4.30518948 4.58268096,4.61488128 4.35115115,4.76537565 C4.27004602,4.81809399 4.17538993,4.84615385 4.07865698,4.84615385 L0.921343022,4.84615385 C0.645200647,4.84615385 0.421343022,4.62229622 0.421343022,4.34615385 C0.421343022,4.24942089 0.44940288,4.1547648 0.502121214,4.07365967 L2.08077819,1.64495663 C2.23127257,1.41342682 2.54096436,1.34773462 2.77249418,1.498229 C2.83112579,1.53633954 2.88111126,1.58632502 2.91922181,1.64495663 Z" fill="hsl(0, 0%, 52.3%)" transform="translate(2.500000, 2.923077) rotate(90.000000) translate(-2.500000, -2.923077)"/></marker><path id="arr_QRuPfKceZKYR0JxYzM8ps_path" style="stroke-width: 3px; stroke: rgb(133, 133, 133);" stroke-linecap="round" marker-end="url(#arrowhead_arr_QRuPfKceZKYR0JxYzM8ps)" d="M 3301 2304 L 3348 2304  " fill="none" pointer-events="stroke" stroke-linejoin="round"/><path style="stroke-width: 4px; stroke: transparent;" d="M 3301 2304 L 3348 2304  " fill="none" pointer-events="stroke"/></g><g id="arr_XmMIxZseyO47oylhboHLS"><marker id="arrowhead_arr_XmMIxZseyO47oylhboHLS" refX="1" refY="3" orient="auto" markerWidth="8" markerHeight="8"><path d="M2.91922181,1.64495663 L4.49787879,4.07365967 C4.64837316,4.30518948 4.58268096,4.61488128 4.35115115,4.76537565 C4.27004602,4.81809399 4.17538993,4.84615385 4.07865698,4.84615385 L0.921343022,4.84615385 C0.645200647,4.84615385 0.421343022,4.62229622 0.421343022,4.34615385 C0.421343022,4.24942089 0.44940288,4.1547648 0.502121214,4.07365967 L2.08077819,1.64495663 C2.23127257,1.41342682 2.54096436,1.34773462 2.77249418,1.498229 C2.83112579,1.53633954 2.88111126,1.58632502 2.91922181,1.64495663 Z" fill="hsl(0, 0%, 52.3%)" transform="translate(2.500000, 2.923077) rotate(90.000000) translate(-2.500000, -2.923077)"/></marker><path id="arr_XmMIxZseyO47oylhboHLS_path" style="stroke-width: 3px; stroke: rgb(133, 133, 133);" stroke-linecap="round" marker-end="url(#arrowhead_arr_XmMIxZseyO47oylhboHLS)" d="M 3264 2469 L 3264 2484  " fill="none" pointer-events="stroke" stroke-linejoin="round"/><path style="stroke-width: 4px; stroke: transparent;" d="M 3264 2469 L 3264 2484  " fill="none" pointer-events="stroke"/></g><g id="arr_ZGK56msUhUxdUdBkTy4X1"><marker id="arrowhead_arr_ZGK56msUhUxdUdBkTy4X1" refX="1" refY="3" orient="auto" markerWidth="8" markerHeight="8"><path d="M2.91922181,1.64495663 L4.49787879,4.07365967 C4.64837316,4.30518948 4.58268096,4.61488128 4.35115115,4.76537565 C4.27004602,4.81809399 4.17538993,4.84615385 4.07865698,4.84615385 L0.921343022,4.84615385 C0.645200647,4.84615385 0.421343022,4.62229622 0.421343022,4.34615385 C0.421343022,4.24942089 0.44940288,4.1547648 0.502121214,4.07365967 L2.08077819,1.64495663 C2.23127257,1.41342682 2.54096436,1.34773462 2.77249418,1.498229 C2.83112579,1.53633954 2.88111126,1.58632502 2.91922181,1.64495663 Z" fill="hsl(0, 0%, 52.3%)" transform="translate(2.500000, 2.923077) rotate(90.000000) translate(-2.500000, -2.923077)"/></marker><path id="arr_ZGK56msUhUxdUdBkTy4X1_path" style="stroke-width: 3px; stroke: rgb(133, 133, 133);" stroke-linecap="round" marker-end="url(#arrowhead_arr_ZGK56msUhUxdUdBkTy4X1)" d="M 2949 2432 L 2996 2432  " fill="none" pointer-events="stroke" stroke-linejoin="round"/><path style="stroke-width: 4px; stroke: transparent;" d="M 2949 2432 L 2996 2432  " fill="none" pointer-events="stroke"/></g><g id="arr_csoai1YOQ7cR6nzi7rgA2"><marker id="arrowhead_arr_csoai1YOQ7cR6nzi7rgA2" refX="1" refY="3" orient="auto" markerWidth="8" markerHeight="8"><path d="M2.91922181,1.64495663 L4.49787879,4.07365967 C4.64837316,4.30518948 4.58268096,4.61488128 4.35115115,4.76537565 C4.27004602,4.81809399 4.17538993,4.84615385 4.07865698,4.84615385 L0.921343022,4.84615385 C0.645200647,4.84615385 0.421343022,4.62229622 0.421343022,4.34615385 C0.421343022,4.24942089 0.44940288,4.1547648 0.502121214,4.07365967 L2.08077819,1.64495663 C2.23127257,1.41342682 2.54096436,1.34773462 2.77249418,1.498229 C2.83112579,1.53633954 2.88111126,1.58632502 2.91922181,1.64495663 Z" fill="hsl(0, 0%, 52.3%)" transform="translate(2.500000, 2.923077) rotate(90.000000) translate(-2.500000, -2.923077)"/></marker><path id="arr_csoai1YOQ7cR6nzi7rgA2_path" style="stroke-width: 3px; stroke: rgb(133, 133, 133);" stroke-linecap="round" marker-end="url(#arrowhead_arr_csoai1YOQ7cR6nzi7rgA2)" d="M 3467 2432 L 3420 2432  " fill="none" pointer-events="stroke" stroke-linejoin="round"/><path style="stroke-width: 4px; stroke: transparent;" d="M 3467 2432 L 3420 2432  " fill="none" pointer-events="stroke"/></g><g id="arr_dPgOAkO5Q6CCsRESEAEu5"><marker id="arrowhead_arr_dPgOAkO5Q6CCsRESEAEu5" refX="1" refY="3" orient="auto" markerWidth="8" markerHeight="8"><path d="M2.91922181,1.64495663 L4.49787879,4.07365967 C4.64837316,4.30518948 4.58268096,4.61488128 4.35115115,4.76537565 C4.27004602,4.81809399 4.17538993,4.84615385 4.07865698,4.84615385 L0.921343022,4.84615385 C0.645200647,4.84615385 0.421343022,4.62229622 0.421343022,4.34615385 C0.421343022,4.24942089 0.44940288,4.1547648 0.502121214,4.07365967 L2.08077819,1.64495663 C2.23127257,1.41342682 2.54096436,1.34773462 2.77249418,1.498229 C2.83112579,1.53633954 2.88111126,1.58632502 2.91922181,1.64495663 Z" fill="hsl(0, 0%, 52.3%)" transform="translate(2.500000, 2.923077) rotate(90.000000) translate(-2.500000, -2.923077)"/></marker><path id="arr_dPgOAkO5Q6CCsRESEAEu5_path" style="stroke-width: 3px; stroke: rgb(133, 133, 133);" stroke-linecap="round" marker-end="url(#arrowhead_arr_dPgOAkO5Q6CCsRESEAEu5)" d="M 2789 2432 L 2868 2432  " fill="none" pointer-events="stroke" stroke-linejoin="round"/><path style="stroke-width: 4px; stroke: transparent;" d="M 2789 2432 L 2868 2432  " fill="none" pointer-events="stroke"/></g><g id="arr_fK0W2YPmEXNMp2qyPJGFc"><marker id="arrowhead_arr_fK0W2YPmEXNMp2qyPJGFc" refX="1" refY="3" orient="auto" markerWidth="8" markerHeight="8"><path d="M2.91922181,1.64495663 L4.49787879,4.07365967 C4.64837316,4.30518948 4.58268096,4.61488128 4.35115115,4.76537565 C4.27004602,4.81809399 4.17538993,4.84615385 4.07865698,4.84615385 L0.921343022,4.84615385 C0.645200647,4.84615385 0.421343022,4.62229622 0.421343022,4.34615385 C0.421343022,4.24942089 0.44940288,4.1547648 0.502121214,4.07365967 L2.08077819,1.64495663 C2.23127257,1.41342682 2.54096436,1.34773462 2.77249418,1.498229 C2.83112579,1.53633954 2.88111126,1.58632502 2.91922181,1.64495663 Z" fill="hsl(0, 0%, 52.3%)" transform="translate(2.500000, 2.923077) rotate(90.000000) translate(-2.500000, -2.923077)"/></marker><path id="arr_fK0W2YPmEXNMp2qyPJGFc_path" style="stroke-width: 3px; stroke: rgb(133, 133, 133);" stroke-linecap="round" marker-end="url(#arrowhead_arr_fK0W2YPmEXNMp2qyPJGFc)" d="M 3115 2656 L 3052 2656  " fill="none" pointer-events="stroke" stroke-linejoin="round"/><path style="stroke-width: 4px; stroke: transparent;" d="M 3115 2656 L 3052 2656  " fill="none" pointer-events="stroke"/></g><g id="arr_fwWOG9DWpVY8iG53zQLzK"><marker id="arrowhead_arr_fwWOG9DWpVY8iG53zQLzK" refX="1" refY="3" orient="auto" markerWidth="8" markerHeight="8"><path d="M2.91922181,1.64495663 L4.49787879,4.07365967 C4.64837316,4.30518948 4.58268096,4.61488128 4.35115115,4.76537565 C4.27004602,4.81809399 4.17538993,4.84615385 4.07865698,4.84615385 L0.921343022,4.84615385 C0.645200647,4.84615385 0.421343022,4.62229622 0.421343022,4.34615385 C0.421343022,4.24942089 0.44940288,4.1547648 0.502121214,4.07365967 L2.08077819,1.64495663 C2.23127257,1.41342682 2.54096436,1.34773462 2.77249418,1.498229 C2.83112579,1.53633954 2.88111126,1.58632502 2.91922181,1.64495663 Z" fill="hsl(0, 0%, 52.3%)" transform="translate(2.500000, 2.923077) rotate(90.000000) translate(-2.500000, -2.923077)"/></marker><path id="arr_fwWOG9DWpVY8iG53zQLzK_path" style="stroke-width: 3px; stroke: rgb(133, 133, 133);" stroke-linecap="round" marker-end="url(#arrowhead_arr_fwWOG9DWpVY8iG53zQLzK)" d="M 2875 2656 L 2796 2656  " fill="none" pointer-events="stroke" stroke-linejoin="round"/><path style="stroke-width: 4px; stroke: transparent;" d="M 2875 2656 L 2796 2656  " fill="none" pointer-events="stroke"/></g><g id="arr_tRc0Ymm8RjvMAbP83UUP5"><marker id="arrowhead_arr_tRc0Ymm8RjvMAbP83UUP5" refX="1" refY="3" orient="auto" markerWidth="8" markerHeight="8"><path d="M2.91922181,1.64495663 L4.49787879,4.07365967 C4.64837316,4.30518948 4.58268096,4.61488128 4.35115115,4.76537565 C4.27004602,4.81809399 4.17538993,4.84615385 4.07865698,4.84615385 L0.921343022,4.84615385 C0.645200647,4.84615385 0.421343022,4.62229622 0.421343022,4.34615385 C0.421343022,4.24942089 0.44940288,4.1547648 0.502121214,4.07365967 L2.08077819,1.64495663 C2.23127257,1.41342682 2.54096436,1.34773462 2.77249418,1.498229 C2.83112579,1.53633954 2.88111126,1.58632502 2.91922181,1.64495663 Z" fill="hsl(0, 0%, 52.3%)" transform="translate(2.500000, 2.923077) rotate(90.000000) translate(-2.500000, -2.923077)"/></marker><path id="arr_tRc0Ymm8RjvMAbP83UUP5_path" style="stroke-width: 3px; stroke: rgb(133, 133, 133);" stroke-linecap="round" marker-end="url(#arrowhead_arr_tRc0Ymm8RjvMAbP83UUP5)" d="M 3080 2469 L 3080 2522 C 3080 2525 3083 2528 3086 2528 L 3220 2528  " fill="none" pointer-events="stroke" stroke-linejoin="round"/><path style="stroke-width: 4px; stroke: transparent;" d="M 3080 2469 L 3080 2522 C 3080 2525 3083 2528 3086 2528 L 3220 2528  " fill="none" pointer-events="stroke"/></g><g id="arr_vE2jl9DKt2VBnkxchNlTT"><marker id="arrowhead_arr_vE2jl9DKt2VBnkxchNlTT" refX="1" refY="3" orient="auto" markerWidth="8" markerHeight="8"><path d="M2.91922181,1.64495663 L4.49787879,4.07365967 C4.64837316,4.30518948 4.58268096,4.61488128 4.35115115,4.76537565 C4.27004602,4.81809399 4.17538993,4.84615385 4.07865698,4.84615385 L0.921343022,4.84615385 C0.645200647,4.84615385 0.421343022,4.62229622 0.421343022,4.34615385 C0.421343022,4.24942089 0.44940288,4.1547648 0.502121214,4.07365967 L2.08077819,1.64495663 C2.23127257,1.41342682 2.54096436,1.34773462 2.77249418,1.498229 C2.83112579,1.53633954 2.88111126,1.58632502 2.91922181,1.64495663 Z" fill="hsl(0, 0%, 52.3%)" transform="translate(2.500000, 2.923077) rotate(90.000000) translate(-2.500000, -2.923077)"/></marker><path id="arr_vE2jl9DKt2VBnkxchNlTT_path" style="stroke-width: 3px; stroke: rgb(133, 133, 133);" stroke-linecap="round" marker-end="url(#arrowhead_arr_vE2jl9DKt2VBnkxchNlTT)" d="M 3173 2304 L 3220 2304  " fill="none" pointer-events="stroke" stroke-linejoin="round"/><path style="stroke-width: 4px; stroke: transparent;" d="M 3173 2304 L 3220 2304  " fill="none" pointer-events="stroke"/></g><g id="arr_yiGV3rbPzTPrIrRe6WThl"><marker id="arrowhead_arr_yiGV3rbPzTPrIrRe6WThl" refX="1" refY="3" orient="auto" markerWidth="8" markerHeight="8"><path d="M2.91922181,1.64495663 L4.49787879,4.07365967 C4.64837316,4.30518948 4.58268096,4.61488128 4.35115115,4.76537565 C4.27004602,4.81809399 4.17538993,4.84615385 4.07865698,4.84615385 L0.921343022,4.84615385 C0.645200647,4.84615385 0.421343022,4.62229622 0.421343022,4.34615385 C0.421343022,4.24942089 0.44940288,4.1547648 0.502121214,4.07365967 L2.08077819,1.64495663 C2.23127257,1.41342682 2.54096436,1.34773462 2.77249418,1.498229 C2.83112579,1.53633954 2.88111126,1.58632502 2.91922181,1.64495663 Z" fill="hsl(0, 0%, 52.3%)" transform="translate(2.500000, 2.923077) rotate(90.000000) translate(-2.500000, -2.923077)"/></marker><path id="arr_yiGV3rbPzTPrIrRe6WThl_path" style="stroke-width: 3px; stroke: rgb(133, 133, 133);" stroke-linecap="round" marker-end="url(#arrowhead_arr_yiGV3rbPzTPrIrRe6WThl)" d="M 2704 2619 L 2704 2572  " fill="none" pointer-events="stroke" stroke-linejoin="round"/><path style="stroke-width: 4px; stroke: transparent;" d="M 2704 2619 L 2704 2572  " fill="none" pointer-events="stroke"/></g></g></g><g transform="translate(3518,2765 )"></g></svg>