<svg xmlns="http://www.w3.org/2000/svg" id="msvphsYEAsSU7O310ZmPM" width="536" height="632" viewBox="2700 4172 536 632" style="width: 100%; height: 100%; font-family: Inter, arial, sans-serif;"><g id="wrapper" transform="translate(0, 0) scale(1)"><g id="objects"><g transform="translate(2800, 4272)"><mask id="ctr_AuoBiszuGa8yOSFnPEOcH59d0IrgwASicmzs6Q-Plg-text-mask"><rect x="-3" y="-3" width="342" height="86" fill="white"/><rect x="10" y="-3" width="120.39999389648438" height="6" fill="black"/></mask><g><rect x="1" y="1" width="334" height="78" fill="#fffcfb" stroke="#f9c9aa" stroke-width="2px" stroke-opacity="1" rx="10" ry="10" mask="url(&quot;#ctr_AuoBiszuGa8yOSFnPEOcH59d0IrgwASicmzs6Q-Plg-text-mask&quot;)"/></g><g><rect x="-8" y="-8" width="352" height="16" fill="transparent"/><rect x="-8" y="72" width="352" height="16" fill="transparent"/><rect x="-8" y="-8" width="16" height="96" fill="transparent"/><rect x="328" y="-8" width="16" height="96" fill="transparent"/></g><g><g transform="translate(10, -12.100006103515625)"><text x="2" y="16" font-size="14px" fill="#983d00">Presentation Tier</text></g></g></g><g id="icn_ibiWizxwpeYcHfevZH4KD" transform="translate(2816,4288)"><g transform="translate(0,0)"><path d="&#xA;    M 0, 15.936&#xA;    C 0, 2.812704 2.812704, 0 15.936, 0&#xA;    L 288.064, 0&#xA;    C 301.187296, 0 304, 2.812704 304, 15.936&#xA;    L 304, 32.064&#xA;    C 304, 45.187296 301.187296, 48 288.064, 48&#xA;    L 15.936, 48&#xA;    C 2.812704, 48 0, 45.187296 0, 32.064&#xA;    L 0, 15.936&#xA;  " stroke-width="2" stroke="#d8dadd" fill="#f0f1f2"/></g><rect width="314" height="58" x="-5" y="-5" fill="transparent"/><rect width="294" height="38" x="5" y="5" fill="transparent"/><g><svg viewBox="0 0 50 50" width="32" height="28" x="96.80000305175781" y="10"><svg id="n9i5-Big_X4qq8atSbSW4" xmlns="http://www.w3.org/2000/svg" fill="none" viewBox="0 0 400 300" width="50" height="50"><path fill="#232F3D" fill-rule="evenodd" d="M356.25 0H43.75A43.749 43.749 0 0 0 0 43.75v212.5A43.751 43.751 0 0 0 43.75 300h312.5A43.75 43.75 0 0 0 400 256.25V43.75A43.75 43.75 0 0 0 356.25 0ZM12.5 43.75A31.249 31.249 0 0 1 43.75 12.5h312.5a31.247 31.247 0 0 1 31.25 31.25v12.5h-375v-12.5Zm0 212.5V68.75H125V287.5H43.75a31.248 31.248 0 0 1-31.25-31.25Zm375 0a31.247 31.247 0 0 1-31.25 31.25H137.5V68.75h250v187.5ZM48.125 30a6.041 6.041 0 0 1 1.388 6.755 6.041 6.041 0 0 1-1.388 1.995 4.443 4.443 0 0 1-2 1.375 5.077 5.077 0 0 1-2.375.5 6.247 6.247 0 0 1-5.691-3.87A6.25 6.25 0 0 1 39.375 30a6.251 6.251 0 0 1 8.75 0Zm25 0a6.046 6.046 0 0 1 1.877 4.375 6.048 6.048 0 0 1-1.877 4.375 4.446 4.446 0 0 1-2 1.375 5.08 5.08 0 0 1-2.375.5 6.412 6.412 0 0 1-6.25-6.25A5.08 5.08 0 0 1 63 32a4.446 4.446 0 0 1 1.375-2 6.138 6.138 0 0 1 6.75-1.375c.781.264 1.474.74 2 1.375ZM99.5 32a5.08 5.08 0 0 1 .5 2.375 6.412 6.412 0 0 1-6.25 6.25 5.08 5.08 0 0 1-2.375-.5 4.446 4.446 0 0 1-2-1.375 5.854 5.854 0 0 1-1.875-4.375A5.08 5.08 0 0 1 88 32a4.446 4.446 0 0 1 1.375-2 6.25 6.25 0 0 1 8.75 0 4.446 4.446 0 0 1 1.375 2Zm-62 74.25a6.248 6.248 0 0 1 6.25-6.25h50c1.658 0 3.247.658 4.419 1.831a6.245 6.245 0 0 1 0 8.838 6.245 6.245 0 0 1-4.419 1.831h-50a6.247 6.247 0 0 1-6.25-6.25Zm62.5 37.5a6.245 6.245 0 0 1-1.831 4.419A6.245 6.245 0 0 1 93.75 150h-50a6.247 6.247 0 0 1-6.25-6.25 6.248 6.248 0 0 1 6.25-6.25h50c1.658 0 3.247.658 4.419 1.831A6.245 6.245 0 0 1 100 143.75Zm0 37.5a6.245 6.245 0 0 1-1.831 4.419 6.245 6.245 0 0 1-4.419 1.831h-50a6.247 6.247 0 0 1-6.25-6.25 6.248 6.248 0 0 1 6.25-6.25h50c1.658 0 3.247.658 4.419 1.831A6.245 6.245 0 0 1 100 181.25Zm0 37.5a6.245 6.245 0 0 1-1.831 4.419A6.245 6.245 0 0 1 93.75 225h-50a6.247 6.247 0 0 1-6.25-6.25 6.248 6.248 0 0 1 6.25-6.25h50c1.658 0 3.247.658 4.419 1.831A6.245 6.245 0 0 1 100 218.75Zm0 37.5a6.245 6.245 0 0 1-1.831 4.419 6.245 6.245 0 0 1-4.419 1.831h-50a6.247 6.247 0 0 1-6.25-6.25 6.248 6.248 0 0 1 6.25-6.25h50c1.658 0 3.247.658 4.419 1.831A6.245 6.245 0 0 1 100 256.25ZM175 150h175c6.63 0 12.989-2.634 17.678-7.322a25.004 25.004 0 0 0 0-35.356A25.004 25.004 0 0 0 350 100H175a25.004 25.004 0 0 0-17.678 7.322 25.004 25.004 0 0 0 0 35.356A25.004 25.004 0 0 0 175 150Zm0-37.5h175a12.501 12.501 0 0 1 0 25H175a12.501 12.501 0 0 1 0-25Zm200 68.75a6.245 6.245 0 0 1-1.831 4.419 6.245 6.245 0 0 1-4.419 1.831h-87.5a6.245 6.245 0 0 1-4.419-1.831 6.245 6.245 0 0 1 0-8.838A6.245 6.245 0 0 1 281.25 175h87.5c1.658 0 3.247.658 4.419 1.831A6.245 6.245 0 0 1 375 181.25Zm0 25a6.245 6.245 0 0 1-1.831 4.419 6.245 6.245 0 0 1-4.419 1.831h-87.5a6.245 6.245 0 0 1-4.419-1.831 6.245 6.245 0 0 1 0-8.838A6.245 6.245 0 0 1 281.25 200h87.5c1.658 0 3.247.658 4.419 1.831A6.245 6.245 0 0 1 375 206.25Zm0 25a6.245 6.245 0 0 1-1.831 4.419 6.245 6.245 0 0 1-4.419 1.831h-87.5a6.245 6.245 0 0 1-4.419-1.831 6.245 6.245 0 0 1 0-8.838A6.245 6.245 0 0 1 281.25 225h87.5c1.658 0 3.247.658 4.419 1.831A6.245 6.245 0 0 1 375 231.25Zm0 25a6.245 6.245 0 0 1-1.831 4.419 6.245 6.245 0 0 1-4.419 1.831h-87.5a6.245 6.245 0 0 1-4.419-1.831 6.245 6.245 0 0 1 0-8.838A6.245 6.245 0 0 1 281.25 250h87.5c1.658 0 3.247.658 4.419 1.831A6.245 6.245 0 0 1 375 256.25Zm-200 6.25h50c6.63 0 12.989-2.634 17.678-7.322A25.004 25.004 0 0 0 250 237.5V200c0-6.63-2.634-12.989-7.322-17.678A25.004 25.004 0 0 0 225 175h-50a25.004 25.004 0 0 0-17.678 7.322A25.004 25.004 0 0 0 150 200v37.5c0 6.63 2.634 12.989 7.322 17.678A25.004 25.004 0 0 0 175 262.5ZM162.5 200a12.501 12.501 0 0 1 12.5-12.5h50a12.501 12.501 0 0 1 12.5 12.5v37.5A12.501 12.501 0 0 1 225 250h-50a12.501 12.501 0 0 1-12.5-12.5V200Z" clip-rule="evenodd"/></svg></svg><g transform="translate(152.8000030517578, 10)"><g transform="translate(0,-4)"><text y="4.5"><tspan dy="19" x="0" text-anchor="start"><tspan text-decoration="none" font-style="normal" font-size="14px" font-weight="normal" style="font-weight: normal;" fill="#000000">UI Layer</tspan></tspan></text></g></g><line x1="140.0500030517578" y1="5.25" x2="140.0500030517578" y2="42.75" stroke="#d8dadd" stroke-width="1.5px" stroke-linecap="round"/></g></g><g transform="translate(2800, 4384)"><mask id="ctr_E1NLDBIBNj3pSodmjWvccDRVDb7ZsthqPqgOosAl-A-text-mask"><rect x="-3" y="-3" width="342" height="214" fill="white"/><rect x="10" y="-3" width="110.63333129882812" height="6" fill="black"/></mask><g><rect x="1" y="1" width="334" height="206" fill="#fbfdff" stroke="#afd8fb" stroke-width="2px" stroke-opacity="1" rx="10" ry="10" mask="url(&quot;#ctr_E1NLDBIBNj3pSodmjWvccDRVDb7ZsthqPqgOosAl-A-text-mask&quot;)"/></g><g><rect x="-8" y="-8" width="352" height="16" fill="transparent"/><rect x="-8" y="200" width="352" height="16" fill="transparent"/><rect x="-8" y="-8" width="16" height="224" fill="transparent"/><rect x="328" y="-8" width="16" height="224" fill="transparent"/></g><g><g transform="translate(10, -12.100006103515625)"><text x="2" y="16" font-size="14px" fill="#0059a7">Application Tier</text></g></g></g><g transform="translate(2800, 4624)"><mask id="ctr_z2JEQNvVFxylw7yoAkDn1WHRPzFFWmBR0rAxjHqG5w-text-mask"><rect x="-3" y="-3" width="342" height="86" fill="white"/><rect x="10" y="-3" width="67.75" height="6" fill="black"/></mask><g><rect x="1" y="1" width="334" height="78" fill="#fbfdfc" stroke="#b6dbca" stroke-width="2px" stroke-opacity="1" rx="10" ry="10" mask="url(&quot;#ctr_z2JEQNvVFxylw7yoAkDn1WHRPzFFWmBR0rAxjHqG5w-text-mask&quot;)"/></g><g><rect x="-8" y="-8" width="352" height="16" fill="transparent"/><rect x="-8" y="72" width="352" height="16" fill="transparent"/><rect x="-8" y="-8" width="16" height="96" fill="transparent"/><rect x="328" y="-8" width="16" height="96" fill="transparent"/></g><g><g transform="translate(10, -12.100006103515625)"><text x="2" y="16" font-size="14px" fill="#1b6543">Data Tier</text></g></g></g><g id="icn_LMH47hVVPEyc919IHlNJU" transform="translate(2816,4400)"><g transform="translate(0,0)"><path d="&#xA;    M 0, 15.936&#xA;    C 0, 2.812704 2.812704, 0 15.936, 0&#xA;    L 288.064, 0&#xA;    C 301.187296, 0 304, 2.812704 304, 15.936&#xA;    L 304, 32.064&#xA;    C 304, 45.187296 301.187296, 48 288.064, 48&#xA;    L 15.936, 48&#xA;    C 2.812704, 48 0, 45.187296 0, 32.064&#xA;    L 0, 15.936&#xA;  " stroke-width="2" stroke="#dadada" fill="#f1f1f1"/></g><rect width="314" height="58" x="-5" y="-5" fill="transparent"/><rect width="294" height="38" x="5" y="5" fill="transparent"/><g><svg viewBox="0 0 50 50" width="32" height="28" x="79.03334045410156" y="10"><svg id="DdpdEeH4cVDMADaedXh4U" xmlns="http://www.w3.org/2000/svg" fill="none" viewBox="0 0 31 27" width="50" height="50"><g clip-path="url(#1aKXsasuoITMN1XIHazhS)"><path fill="#231E21" d="M26 16.9h-2.1c-.8-3.9-4.2-6.9-8.3-6.9-4.2 0-7.6 3-8.3 6.9H5.2c-1.9 0-3.7-1.8-3.6-3.7C1.6 11.5 3.1 10 5 10h.1c.3 0 .6 0 .8.1l1 .3.2-1c.4-2.1 2.3-3.6 4.4-3.6h.1c.7 0 1.3.2 1.8.4l1 .5.4-1c.9-2.3 2.9-3.7 5.1-3.7h.1c2.8.1 5.1 2.4 5.3 5.5l.1.8.8.1c1.9.2 3.3 2.1 3.3 4.4 0 2.2-1.6 4.1-3.5 4.1ZM15.6 26c-4.1 0-7.5-3.3-7.5-7.5v-.6c0-.4.1-.7.1-1 .7-3.4 3.7-5.9 7.3-5.9 3.6 0 6.5 2.5 7.3 5.9.1.3.1.7.2 1v.6c0 4.2-3.3 7.5-7.4 7.5ZM26.4 7.3c-.3-3.5-3-6.3-6.3-6.4H20c-2.7 0-5 1.8-6 4.4-.7-.3-1.4-.5-2.2-.5h-.1c-2.6 0-4.9 1.9-5.4 4.4C5.8 9 5.5 9 5.1 9H5C2.6 9 .7 10.9.6 13.3.5 15.7 2.8 18 5.2 18h2v.5c0 4.7 3.8 8.5 8.5 8.5s8.5-3.8 8.5-8.5v-.6h2c2.5 0 4.5-2.3 4.6-5.2-.1-2.8-2-5.2-4.4-5.4Zm-8 4.9-5.8 5.4 3.5 1.3-3.6 6.1 6.5-6.8-3.4-1.2 2.8-4.8Z"/></g><defs><clipPath id="1aKXsasuoITMN1XIHazhS"><path fill="#fff" d="M0 0h31v27H0z"/></clipPath></defs></svg></svg><g transform="translate(135.03334045410156, 10)"><g transform="translate(0,-4)"><text y="4.5"><tspan dy="19" x="0" text-anchor="start"><tspan text-decoration="none" font-style="normal" font-size="14px" font-weight="normal" style="font-weight: normal;" fill="#000000">Service Layer</tspan></tspan></text></g></g><line x1="122.28334045410156" y1="5.25" x2="122.28334045410156" y2="42.75" stroke="#dadada" stroke-width="1.5px" stroke-linecap="round"/></g></g><g id="icn_hVeg3VxxIMYie18B3j4z7" transform="translate(2816,4464)"><g transform="translate(0,0)"><path d="&#xA;    M 0, 15.936&#xA;    C 0, 2.812704 2.812704, 0 15.936, 0&#xA;    L 288.064, 0&#xA;    C 301.187296, 0 304, 2.812704 304, 15.936&#xA;    L 304, 32.064&#xA;    C 304, 45.187296 301.187296, 48 288.064, 48&#xA;    L 15.936, 48&#xA;    C 2.812704, 48 0, 45.187296 0, 32.064&#xA;    L 0, 15.936&#xA;  " stroke-width="2" stroke="#d8dadd" fill="#f0f1f2"/></g><rect width="314" height="58" x="-5" y="-5" fill="transparent"/><rect width="294" height="38" x="5" y="5" fill="transparent"/><g><svg viewBox="0 0 50 50" width="32" height="28" x="54.5" y="10"><svg id="Kr8o00yJrQ_YcDqLnJq7m" xmlns="http://www.w3.org/2000/svg" viewBox="7.2 4.2 36.47 41.53" width="50" height="50"><path fill="#232F3D" fill-rule="evenodd" d="M26.35 42.522V35.1l7.814-4.51a.907.907 0 0 0 .454-.787v-9.177l6.453-3.724v17.12l-14.72 8.5zM9.815 16.902l6.453 3.724v9.177c0 .324.173.624.454.786l7.814 4.51v7.423l-14.721-8.5v-17.12zM26.35 25.49l6.453-3.725v7.514l-6.453 3.726V25.49zm-8.267-3.726 6.453 3.726v7.515l-6.453-3.726v-7.515zm7.36 2.064-6.32-3.65 6.32-3.647 6.32 3.648-6.32 3.65zm0-16.874 14.613 8.437-6.478 3.74-7.681-4.434a.91.91 0 0 0-.908 0l-7.681 4.435-6.478-3.74 14.613-8.438zm16.99 7.713L25.896 5.12a.915.915 0 0 0-.908 0L8.454 14.667a.909.909 0 0 0-.454.786v19.093c0 .324.173.623.454.786l16.535 9.547a.906.906 0 0 0 .908 0l16.535-9.547a.909.909 0 0 0 .454-.786V15.453a.909.909 0 0 0-.454-.786z"/></svg></svg><g transform="translate(110.5, 10)"><g transform="translate(0,-4)"><text y="4.5"><tspan dy="19" x="0" text-anchor="start"><tspan text-decoration="none" font-style="normal" font-size="14px" font-weight="normal" style="font-weight: normal;" fill="#000000">Business Logic Layer</tspan></tspan></text></g></g><line x1="97.75" y1="5.25" x2="97.75" y2="42.75" stroke="#d8dadd" stroke-width="1.5px" stroke-linecap="round"/></g></g><g id="icn_LXWyrd2qSztq0xyB9DGcO" transform="translate(2816,4528)"><g transform="translate(0,0)"><path d="&#xA;    M 0, 15.936&#xA;    C 0, 2.812704 2.812704, 0 15.936, 0&#xA;    L 288.064, 0&#xA;    C 301.187296, 0 304, 2.812704 304, 15.936&#xA;    L 304, 32.064&#xA;    C 304, 45.187296 301.187296, 48 288.064, 48&#xA;    L 15.936, 48&#xA;    C 2.812704, 48 0, 45.187296 0, 32.064&#xA;    L 0, 15.936&#xA;  " stroke-width="2" stroke="#d8dadd" fill="#f0f1f2"/></g><rect width="314" height="58" x="-5" y="-5" fill="transparent"/><rect width="294" height="38" x="5" y="5" fill="transparent"/><g><svg viewBox="0 0 50 50" width="32" height="28" x="65.91667175292969" y="10"><svg id="GD8TjMA-XacGoZ3Z5KJLw" xmlns="http://www.w3.org/2000/svg" viewBox="0 0 640 512" width="50" height="50"><path fill="#232F3D" d="M640 264v-16c0-8.84-7.16-16-16-16H344v-40h72c17.67 0 32-14.33 32-32V32c0-17.67-14.33-32-32-32H224c-17.67 0-32 14.33-32 32v128c0 17.67 14.33 32 32 32h72v40H16c-8.84 0-16 7.16-16 16v16c0 8.84 7.16 16 16 16h104v40H64c-17.67 0-32 14.33-32 32v128c0 17.67 14.33 32 32 32h160c17.67 0 32-14.33 32-32V352c0-17.67-14.33-32-32-32h-56v-40h304v40h-56c-17.67 0-32 14.33-32 32v128c0 17.67 14.33 32 32 32h160c17.67 0 32-14.33 32-32V352c0-17.67-14.33-32-32-32h-56v-40h104c8.84 0 16-7.16 16-16zM256 128V64h128v64H256zm-64 320H96v-64h96v64zm352 0h-96v-64h96v64z"/></svg></svg><g transform="translate(121.91667175292969, 10)"><g transform="translate(0,-4)"><text y="4.5"><tspan dy="19" x="0" text-anchor="start"><tspan text-decoration="none" font-style="normal" font-size="14px" font-weight="normal" style="font-weight: normal;" fill="#000000">Connection Layer</tspan></tspan></text></g></g><line x1="109.16667175292969" y1="5.25" x2="109.16667175292969" y2="42.75" stroke="#d8dadd" stroke-width="1.5px" stroke-linecap="round"/></g></g><g id="icn_Qj2satIEDxT9KkHws7BRl" transform="translate(2816,4640)"><g transform="translate(0,0)"><path d="&#xA;    M 0, 15.936&#xA;    C 0, 2.812704 2.812704, 0 15.936, 0&#xA;    L 128.064, 0&#xA;    C 141.187296, 0 144, 2.812704 144, 15.936&#xA;    L 144, 32.064&#xA;    C 144, 45.187296 141.187296, 48 128.064, 48&#xA;    L 15.936, 48&#xA;    C 2.812704, 48 0, 45.187296 0, 32.064&#xA;    L 0, 15.936&#xA;  " stroke-width="2" stroke="#dadada" fill="#f1f1f1"/></g><rect width="154" height="58" x="-5" y="-5" fill="transparent"/><rect width="134" height="38" x="5" y="5" fill="transparent"/><g><svg viewBox="0 0 50 50" width="32" height="28" x="10.800003051757812" y="10"><svg id="9yUFw47tUSjYWynwCpYgc" xmlns="http://www.w3.org/2000/svg" fill="none" viewBox="0 0 24 25" width="50" height="50"><g clip-path="url(#1Nnj1zuuY0xvsS-MoKJTM)"><path fill="#000" d="m17.7 8.1-2.4-1.2V3L21 6c.2.1.3.3.3.5v7L18 11.6v-3c0-.2-.1-.4-.3-.5Zm-2.4 9.1-3.4-1.7v-3.1c0-.2-.1-.4-.3-.5l-2.4-1.2V6.8l3.4 1.8v3.1c0 .2.1.4.3.5l2.4 1.2v3.8Zm-6 3.8-5.8-3c-.2-.1-.3-.3-.3-.5v-6.9l3.4 1.7v3.1c0 .2.1.4.3.5l2.4 1.2V21ZM24 4.7c0-.2-.1-.4-.3-.5L15.6 0h-.5L13 1.3c-.2.1-.3.3-.3.5v3.7L9.6 3.9c-.1-.1-.3 0-.4 0h-.1L6.9 5.3c-.2.1-.3.3-.3.4v3.6L3.5 7.7c-.1-.1-.3-.1-.4 0h-.2l-2 1.4c-.2.1-.3.3-.3.5v9.7c0 .2.1.4.3.5l8 4.2H9c.2.1.4.1.6 0l2.1-1.3.1-.1c.1-.1.2-.2.2-.4v-3.6l3 1.6h.1c.1 0 .2.1.3 0 .1 0 .2 0 .3-.1l2.1-1.3c.1 0 .1-.1.1-.1.1-.1.2-.2.2-.4v-3.6l3 1.6h.1c.2.1.4.1.5 0l2.1-1.3c.1 0 .1-.1.1-.1.1-.1.2-.2.2-.4V4.7H24Z"/></g><defs><clipPath id="1Nnj1zuuY0xvsS-MoKJTM"><path fill="#fff" d="M0 0h24v25H0z"/></clipPath></defs></svg></svg><g transform="translate(66.80000305175781, 10)"><g transform="translate(0,-4)"><text y="4.5"><tspan dy="19" x="0" text-anchor="start"><tspan text-decoration="none" font-style="normal" font-size="14px" font-weight="normal" style="font-weight: normal;" fill="#000000">Vector DB</tspan></tspan></text></g></g><line x1="54.05000305175781" y1="5.25" x2="54.05000305175781" y2="42.75" stroke="#dadada" stroke-width="1.5px" stroke-linecap="round"/></g></g><g id="icn_umVsFZtIaqSFKEDoZzGHF" transform="translate(2976,4640)"><g transform="translate(0,0)"><path d="&#xA;    M 0, 15.936&#xA;    C 0, 2.812704 2.812704, 0 15.936, 0&#xA;    L 128.064, 0&#xA;    C 141.187296, 0 144, 2.812704 144, 15.936&#xA;    L 144, 32.064&#xA;    C 144, 45.187296 141.187296, 48 128.064, 48&#xA;    L 15.936, 48&#xA;    C 2.812704, 48 0, 45.187296 0, 32.064&#xA;    L 0, 15.936&#xA;  " stroke-width="2" stroke="#d8dadd" fill="#f0f1f2"/></g><rect width="154" height="58" x="-5" y="-5" fill="transparent"/><rect width="134" height="38" x="5" y="5" fill="transparent"/><g><svg viewBox="0 0 50 50" width="32" height="28" x="18.699996948242188" y="10"><svg id="XId-kCNvQLGMyFSvRqg4O" xmlns="http://www.w3.org/2000/svg" viewBox="0 0 448 512" width="50" height="50"><path fill="#232F3D" d="M448 73.143v45.714C448 159.143 347.667 192 224 192S0 159.143 0 118.857V73.143C0 32.857 100.333 0 224 0s224 32.857 224 73.143zM448 176v102.857C448 319.143 347.667 352 224 352S0 319.143 0 278.857V176c48.125 33.143 136.208 48.572 224 48.572S399.874 209.143 448 176zm0 160v102.857C448 479.143 347.667 512 224 512S0 479.143 0 438.857V336c48.125 33.143 136.208 48.572 224 48.572S399.874 369.143 448 336z"/></svg></svg><g transform="translate(74.69999694824219, 10)"><g transform="translate(0,-4)"><text y="4.5"><tspan dy="19" x="0" text-anchor="start"><tspan text-decoration="none" font-style="normal" font-size="14px" font-weight="normal" style="font-weight: normal;" fill="#000000">SQL DB</tspan></tspan></text></g></g><line x1="61.94999694824219" y1="5.25" x2="61.94999694824219" y2="42.75" stroke="#d8dadd" stroke-width="1.5px" stroke-linecap="round"/></g></g><g id="arr_J36rysMgntwVonjqVjki5"><marker id="arrowhead_arr_J36rysMgntwVonjqVjki5" refX="1" refY="3" orient="auto" markerWidth="8" markerHeight="8"><path d="M2.91922181,1.64495663 L4.49787879,4.07365967 C4.64837316,4.30518948 4.58268096,4.61488128 4.35115115,4.76537565 C4.27004602,4.81809399 4.17538993,4.84615385 4.07865698,4.84615385 L0.921343022,4.84615385 C0.645200647,4.84615385 0.421343022,4.62229622 0.421343022,4.34615385 C0.421343022,4.24942089 0.44940288,4.1547648 0.502121214,4.07365967 L2.08077819,1.64495663 C2.23127257,1.41342682 2.54096436,1.34773462 2.77249418,1.498229 C2.83112579,1.53633954 2.88111126,1.58632502 2.91922181,1.64495663 Z" fill="hsl(0, 0%, 52.3%)" transform="translate(2.500000, 2.923077) rotate(90.000000) translate(-2.500000, -2.923077)"/></marker><marker id="arrowhead_src_arr_J36rysMgntwVonjqVjki5" refX="4" refY="3" orient="auto" markerWidth="8" markerHeight="8"><path d="M2.91922181,1.64495663 L4.49787879,4.07365967 C4.64837316,4.30518948 4.58268096,4.61488128 4.35115115,4.76537565 C4.27004602,4.81809399 4.17538993,4.84615385 4.07865698,4.84615385 L0.921343022,4.84615385 C0.645200647,4.84615385 0.421343022,4.62229622 0.421343022,4.34615385 C0.421343022,4.24942089 0.44940288,4.1547648 0.502121214,4.07365967 L2.08077819,1.64495663 C2.23127257,1.41342682 2.54096436,1.34773462 2.77249418,1.498229 C2.83112579,1.53633954 2.88111126,1.58632502 2.91922181,1.64495663 Z" fill="hsl(0, 0%, 52.3%)" transform="translate(2.500000, 2.923077) rotate(270.000000) translate(-2.500000, -2.923077)"/></marker><path id="arr_J36rysMgntwVonjqVjki5_path" style="stroke-width: 3px; stroke: rgb(133, 133, 133);" stroke-linecap="round" marker-start="url(#arrowhead_src_arr_J36rysMgntwVonjqVjki5)" marker-end="url(#arrowhead_arr_J36rysMgntwVonjqVjki5)" d="M 2968 4604 L 2968 4612  " fill="none" pointer-events="stroke" stroke-linejoin="round"/><path style="stroke-width: 4px; stroke: transparent;" d="M 2968 4604 L 2968 4612  " fill="none" pointer-events="stroke"/></g><g id="arr_OOqMENzJJu93p4LjpIP8Z"><marker id="arrowhead_arr_OOqMENzJJu93p4LjpIP8Z" refX="1" refY="3" orient="auto" markerWidth="8" markerHeight="8"><path d="M2.91922181,1.64495663 L4.49787879,4.07365967 C4.64837316,4.30518948 4.58268096,4.61488128 4.35115115,4.76537565 C4.27004602,4.81809399 4.17538993,4.84615385 4.07865698,4.84615385 L0.921343022,4.84615385 C0.645200647,4.84615385 0.421343022,4.62229622 0.421343022,4.34615385 C0.421343022,4.24942089 0.44940288,4.1547648 0.502121214,4.07365967 L2.08077819,1.64495663 C2.23127257,1.41342682 2.54096436,1.34773462 2.77249418,1.498229 C2.83112579,1.53633954 2.88111126,1.58632502 2.91922181,1.64495663 Z" fill="hsl(0, 0%, 52.3%)" transform="translate(2.500000, 2.923077) rotate(90.000000) translate(-2.500000, -2.923077)"/></marker><marker id="arrowhead_src_arr_OOqMENzJJu93p4LjpIP8Z" refX="4" refY="3" orient="auto" markerWidth="8" markerHeight="8"><path d="M2.91922181,1.64495663 L4.49787879,4.07365967 C4.64837316,4.30518948 4.58268096,4.61488128 4.35115115,4.76537565 C4.27004602,4.81809399 4.17538993,4.84615385 4.07865698,4.84615385 L0.921343022,4.84615385 C0.645200647,4.84615385 0.421343022,4.62229622 0.421343022,4.34615385 C0.421343022,4.24942089 0.44940288,4.1547648 0.502121214,4.07365967 L2.08077819,1.64495663 C2.23127257,1.41342682 2.54096436,1.34773462 2.77249418,1.498229 C2.83112579,1.53633954 2.88111126,1.58632502 2.91922181,1.64495663 Z" fill="hsl(0, 0%, 52.3%)" transform="translate(2.500000, 2.923077) rotate(270.000000) translate(-2.500000, -2.923077)"/></marker><path id="arr_OOqMENzJJu93p4LjpIP8Z_path" style="stroke-width: 3px; stroke: rgb(133, 133, 133);" stroke-linecap="round" marker-start="url(#arrowhead_src_arr_OOqMENzJJu93p4LjpIP8Z)" marker-end="url(#arrowhead_arr_OOqMENzJJu93p4LjpIP8Z)" d="M 2968 4364 L 2968 4372  " fill="none" pointer-events="stroke" stroke-linejoin="round"/><path style="stroke-width: 4px; stroke: transparent;" d="M 2968 4364 L 2968 4372  " fill="none" pointer-events="stroke"/></g></g></g><g transform="translate(3086,4749 )"></g></svg>