<?xml version="1.0" encoding="UTF-8" standalone="no"?>
<svg
   viewBox="0 0 320 320"
   version="1.1"
   id="svg4"
   sodipodi:docname="avatar_assistan1.svg"
   inkscape:version="1.2.1 (9c6d41e4, 2022-07-14)"
   inkscape:export-filename="avatar_assistan1.jpg"
   inkscape:export-xdpi="96"
   inkscape:export-ydpi="96"
   xmlns:inkscape="http://www.inkscape.org/namespaces/inkscape"
   xmlns:sodipodi="http://sodipodi.sourceforge.net/DTD/sodipodi-0.dtd"
   xmlns="http://www.w3.org/2000/svg"
   xmlns:svg="http://www.w3.org/2000/svg">
  <defs
     id="defs8" />
  <sodipodi:namedview
     id="namedview6"
     pagecolor="#ffffff"
     bordercolor="#000000"
     borderopacity="0.25"
     inkscape:showpageshadow="2"
     inkscape:pageopacity="0.0"
     inkscape:pagecheckerboard="0"
     inkscape:deskcolor="#d1d1d1"
     showgrid="false"
     inkscape:zoom="0.7375"
     inkscape:cx="-120.67797"
     inkscape:cy="81.355932"
     inkscape:window-width="1313"
     inkscape:window-height="458"
     inkscape:window-x="0"
     inkscape:window-y="25"
     inkscape:window-maximized="0"
     inkscape:current-layer="svg4" />
  <path
     d="m 268.51458,138.69828 c 5.7482,-17.2525 3.76879,-36.15187 -5.42357,-51.844599 C 249.26684,62.784111 221.47599,50.40095 194.33438,56.228319 182.26001,42.625845 164.9125,34.890329 146.72572,35.001175 118.98237,34.937834 94.36649,52.799989 85.831293,79.197341 68.008726,82.847365 52.624786,94.003294 43.62245,109.81479 c -13.927097,24.00623 -10.752131,54.26738 7.854281,74.8532 -5.748193,17.2525 -3.768788,36.15186 5.423571,51.84459 13.824168,24.06957 41.615022,36.45273 68.756628,30.62536 12.06646,13.60247 29.42188,21.33799 47.60866,21.21923 27.75918,0.0713 52.38299,-17.80673 60.91818,-44.22784 17.82257,-3.65002 33.20651,-14.80595 42.20885,-30.61744 13.91126,-24.00623 10.72838,-54.24363 -7.87012,-74.82945 z m -95.23315,133.10314 c -11.10843,0.0158 -21.86848,-3.87172 -30.39575,-10.98966 0.38796,-0.20586 1.06096,-0.57799 1.49643,-0.84719 l 50.45108,-29.13684 c 2.58115,-1.46476 4.16467,-4.21218 4.14884,-7.18129 v -71.124 l 21.32215,12.31191 c 0.22961,0.11084 0.38005,0.33254 0.41172,0.5859 v 58.89919 c -0.0317,26.19149 -21.24298,47.42656 -47.43447,47.48198 z M 71.270786,228.23075 c -5.566088,-9.612 -7.569246,-20.87877 -5.661099,-31.81301 0.372128,0.22169 1.02929,0.62549 1.49643,0.89469 l 50.451083,29.13685 c 2.55739,1.49643 5.72444,1.49643 8.28975,0 l 61.59118,-35.56596 v 24.62381 c 0.0158,0.25336 -0.10292,0.49881 -0.30087,0.65716 l -50.9974,29.44564 c -22.71566,13.07991 -51.725821,5.3048 -64.861156,-17.37918 z M 57.992934,118.10454 c 5.542336,-9.62783 14.291308,-16.99122 24.710898,-20.815433 0,0.435469 -0.02375,1.203478 -0.02375,1.741878 v 58.281625 c -0.01584,2.96119 1.567689,5.7086 4.140916,7.17336 l 61.591182,35.55804 -21.32216,12.3119 c -0.21377,0.14252 -0.48297,0.16627 -0.7205,0.0633 L 75.364197,182.94987 C 52.696045,169.82245 44.92094,140.8202 57.985017,118.11246 Z m 175.185306,40.76784 -61.59119,-35.56596 21.32216,-12.30399 c 0.21378,-0.14251 0.48298,-0.16627 0.7205,-0.0633 l 51.00533,29.44564 c 22.70774,13.1195 30.49076,42.16925 17.37126,64.87699 -5.55025,9.612 -14.29131,16.97539 -24.70298,20.80751 v -60.02349 c 0.0238,-2.96119 -1.55186,-5.70069 -4.11717,-7.17336 z m 21.21922,-31.93969 c -0.37212,-0.22961 -1.02929,-0.62549 -1.49643,-0.89469 L 202.44995,96.901144 c -2.5574,-1.496431 -5.72445,-1.496431 -8.28975,0 L 132.56901,132.46711 V 107.8433 c -0.0158,-0.25336 0.10293,-0.49881 0.30087,-0.65716 l 50.99741,-29.421889 c 22.71565,-13.103664 51.75749,-5.304806 64.85324,17.418769 5.53442,9.59616 7.53757,20.83127 5.6611,31.74967 z m -133.41984,43.88738 -21.330077,-12.3119 c -0.229611,-0.11085 -0.380045,-0.33254 -0.411716,-0.58591 V 99.023065 c 0.01584,-26.223163 21.290483,-47.47406 47.513643,-47.458225 11.09259,0 21.82889,3.89547 30.35617,10.989659 -0.38797,0.205859 -1.05305,0.577987 -1.49643,0.847186 l -50.45109,29.136849 c -2.58114,1.46476 -4.16467,4.204257 -4.14883,7.173361 l -0.0317,71.092335 z m 11.58348,-24.97218 27.43456,-15.84316 27.43456,15.83524 v 31.67841 l -27.43456,15.83524 -27.43456,-15.83524 z"
     id="path2"
     style="stroke-width:0.791762" />
</svg>
