<?xml version="1.0" encoding="UTF-8" standalone="no"?>
<!-- Generator: Adobe Illustrator 21.0.2, SVG Export Plug-In . SVG Version: 6.00 Build 0)  -->

<svg
   version="1.1"
   id="Layer_1"
   x="0px"
   y="0px"
   viewBox="0 0 800 800"
   style="enable-background:new 0 0 800 800;"
   xml:space="preserve"
   sodipodi:docname="avatar_assistan2.svg"
   inkscape:version="1.2.1 (9c6d41e4, 2022-07-14)"
   inkscape:export-filename="avatar_assistan2.jpg"
   inkscape:export-xdpi="96"
   inkscape:export-ydpi="96"
   xmlns:inkscape="http://www.inkscape.org/namespaces/inkscape"
   xmlns:sodipodi="http://sodipodi.sourceforge.net/DTD/sodipodi-0.dtd"
   xmlns="http://www.w3.org/2000/svg"
   xmlns:svg="http://www.w3.org/2000/svg"><defs
   id="defs15" /><sodipodi:namedview
   id="namedview13"
   pagecolor="#ffffff"
   bordercolor="#000000"
   borderopacity="0.25"
   inkscape:showpageshadow="2"
   inkscape:pageopacity="0.0"
   inkscape:pagecheckerboard="0"
   inkscape:deskcolor="#d1d1d1"
   showgrid="false"
   inkscape:zoom="0.295"
   inkscape:cx="-301.69492"
   inkscape:cy="372.88136"
   inkscape:window-width="1313"
   inkscape:window-height="458"
   inkscape:window-x="0"
   inkscape:window-y="25"
   inkscape:window-maximized="0"
   inkscape:current-layer="Layer_1" />
<style
   type="text/css"
   id="style2">
	.st0{fill:#181818;}
</style>
<g
   id="g10"
   transform="matrix(0.67547478,0,0,0.67547478,129.81009,130.49835)">
	<path
   class="st0"
   d="M 692,53.1 C 685.1,32.5 670.5,16.5 652.4,7.5 c -18,-9 -39.6,-11.2 -75.2,0.7 L 172.9,143 c -35.6,11.9 -51.6,26.5 -60.6,44.6 -9.1,18 -11.2,39.5 -4.3,60.2 6.9,20.6 21.5,36.6 39.6,45.6 18,9 39.6,11.2 75.2,-0.7 L 627.1,157.9 c 35.6,-11.8 51.6,-26.5 60.6,-44.6 9.1,-18 11.2,-39.5 4.3,-60.2 z"
   id="path4" />
	<path
   class="st0"
   d="M 692,302.6 C 685.1,282 670.5,266 652.4,257 c -18,-9 -39.6,-11.2 -75.2,0.7 L 172.9,392.5 c -35.6,11.9 -51.6,26.5 -60.6,44.6 -9.1,18 -11.2,39.5 -4.3,60.2 6.9,20.6 21.5,36.6 39.6,45.6 18,9 39.6,11.2 75.2,-0.7 L 627.1,407.5 c 35.6,-11.9 51.6,-26.5 60.6,-44.7 9.1,-18 11.2,-39.5 4.3,-60.2 z"
   id="path6" />
	<path
   class="st0"
   d="m 692,552.2 c -6.9,-20.6 -21.5,-36.6 -39.6,-45.6 -18,-9 -39.6,-11.2 -75.2,0.7 L 172.9,642.1 c -35.6,11.9 -51.6,26.5 -60.6,44.6 -9.1,18 -11.2,39.5 -4.3,60.2 6.9,20.6 21.5,36.6 39.6,45.6 18,9 39.6,11.2 75.2,-0.7 L 627.1,657 c 35.6,-11.8 51.6,-26.5 60.6,-44.6 9.1,-18 11.2,-39.5 4.3,-60.2 z"
   id="path8" />
</g>
</svg>
